<?xml version="1.0" encoding="UTF-8"?><svg id="Layer_2" xmlns="http://www.w3.org/2000/svg" viewBox="0 0 251.44 239.24"><g id="Exports"><g id="logo_-_combomark_-_Horizon_-_vert_stack"><g id="sword"><g id="moon"><path d="M144.79,77.6v5.63c10.1,1.55,19.94,4.33,29.42,8.34,14.82,6.27,28.12,15.24,39.55,26.66,11.43,11.43,20.4,24.73,26.66,39.55,6.49,15.34,9.78,31.64,9.78,48.43,0,9.7-1.11,19.24-3.29,28.52,19.6-70.26-26.34-145.97-102.12-157.34v.21Z" style="fill:#fff;"/><path d="M.11,206.21c.35,10.18,1.96,20.07,4.67,29.51-2.34-9.59-3.52-19.46-3.52-29.51,0-16.79,3.29-33.09,9.78-48.43,6.27-14.82,15.24-28.12,26.66-39.55,11.42-11.43,24.73-20.4,39.55-26.66,9.41-3.98,19.18-6.75,29.2-8.3v-5.92C44.59,86.77-2.63,141.83.11,206.21Z" style="fill:#fff;"/><path d="M244.33,212.15c.09-1.85.13-3.72.13-5.59,0-2.94-.11-5.86-.32-8.75-1.02-.16-1.87-1.24-1.99-2.63-.12-1.36.51-2.55,1.45-2.91-.33-2.77-.76-5.51-1.28-8.21-1.43.22-3.25-2.26-4.13-5.66-.9-3.48-.46-6.6.97-6.99-.88-2.82-1.86-5.58-2.94-8.3-2.09.67-4.57-.81-5.64-3.43-.08-.19-.14-.37-.2-.56-.86.28-1.92-.17-2.53-1.14-.69-1.1-.52-2.45.38-3.01.66-.41,1.54-.28,2.23.26.3-.75.79-1.37,1.43-1.78-.32-.63-.63-1.26-.96-1.88-.14.11-.29.19-.46.22-.73.14-1.48-.53-1.66-1.5-.13-.71.07-1.38.48-1.74-2.54-4.5-5.36-8.82-8.44-12.94-.75.02-1.59-.32-2.26-.99-.89-.89-1.2-2.09-.84-2.97-2.22-2.71-4.55-5.31-6.99-7.81.08.29.08.53-.05.68-.46.5-2.17-.31-3.82-1.82-1.65-1.51-2.62-3.13-2.17-3.64.19-.21.6-.18,1.12.02-1.15-1.05-2.33-2.07-3.52-3.08-.02.04-.04.08-.07.11-.92,1.18-3.97.34-6.81-1.88-2.79-2.18-4.35-4.86-3.53-6.07-5.69-3.81-11.73-7.14-18.07-9.94-1.03.6-2.74.5-4.34-.39-1.1-.61-1.92-1.46-2.34-2.32-1.08-.4-2.16-.78-3.25-1.15,0,.16-.04.31-.09.47-.4,1.12-1.92,1.61-3.4,1.08-1.48-.53-2.36-1.86-1.96-2.99.03-.08.07-.15.11-.22-4.48-1.28-9.08-2.28-13.76-3.02v21.33c.08-.68.26-1.33.56-1.95,2.11-4.31,8.91-5.32,15.19-2.25,1.3.63,2.46,1.4,3.49,2.24,2.45-1.8,6.67-1.9,10.63.04,3.88,1.89,6.37,5.16,6.56,8.15,1.54-.5,3.58-.33,5.53.62,3.19,1.56,4.9,4.59,3.84,6.78-1.07,2.19-4.52,2.7-7.7,1.14-1.95-.95-3.34-2.45-3.89-3.98-2.47,1.69-6.59,1.73-10.47-.16-.35-.17-.68-.35-1.01-.54-2.58,3.5-8.81,4.15-14.61,1.32-4.64-2.26-7.69-6.12-8.13-9.72v7.1c3.53,1.88,5.8,4.83,5.8,8.13,0,2.62-1.43,5.02-3.78,6.83,7.01,1.24,13.81,3.09,20.34,5.51-.29-1.26-.2-2.5.34-3.6,1.69-3.47,7.16-4.28,12.21-1.81,5.05,2.47,7.78,7.28,6.08,10.75-.47.96-1.23,1.71-2.19,2.25,8.82,4.92,16.95,10.93,24.2,17.86-.32-2.55.17-4.99,1.37-6.81-.13-.23-.25-.47-.36-.71-1.66-3.64-.69-7.65,2.17-8.94s6.5.61,8.16,4.25c.6,1.33.85,2.71.8,3.98,1.7,1.19,3.19,2.95,4.19,5.14,2.44,5.37,1.01,11.28-3.19,13.19-1.03.47-2.12.65-3.23.58,3.13,3.82,6.02,7.84,8.66,12.03.38-.78.95-1.33,1.67-1.52,1.88-.5,4.06,1.62,4.88,4.73.02.06.03.13.04.19.2-.18.43-.31.69-.37,1.41-.37,3.05,1.22,3.67,3.55.62,2.34-.03,4.53-1.44,4.9-1.26.33-2.71-.91-3.44-2.85-.21.32-.46.58-.74.77,4.92,9.69,8.55,20.15,10.66,31.15.73-3.8,1.27-7.67,1.63-11.6-.62-.46-1.07-1.29-1.15-2.26-.12-1.39.54-2.6,1.52-2.94ZM202.04,152.38c-1.69,1.57-4.68,1.1-6.69-1.06-2.01-2.16-2.27-5.18-.58-6.75,1.69-1.57,4.68-1.1,6.69,1.06,2.01,2.16,2.27,5.18.58,6.75Z" style="fill:#fff;"/><path d="M102.33,90.42c.14.17.24.36.3.57.4,1.55-1.9,3.48-5.14,4.32-3.24.83-6.19.25-6.59-1.3-.06-.24-.05-.49,0-.74-5.43,1.65-10.69,3.68-15.76,6.06,0,.02.01.05.02.07.28,1.47-1.38,3.01-3.69,3.45-1.09.21-2.12.13-2.95-.16-1.09.6-2.17,1.22-3.24,1.85,0,.03.02.05.03.08.22,1.17-.85,2.36-2.39,2.65-.66.13-1.3.06-1.83-.14-5.21,3.38-10.14,7.15-14.74,11.28.25-.05.45-.03.57.08.5.5-.64,2.44-2.54,4.33-1.9,1.9-3.84,3.03-4.33,2.54-.16-.16-.13-.48.01-.88-4.03,4.19-7.76,8.68-11.15,13.43.21.04.41.11.57.24,1.18.92.34,3.97-1.88,6.81-1.89,2.42-4.16,3.91-5.52,3.74-.34.61-.69,1.23-1.02,1.84.33.74.27,1.75-.24,2.67-.47.85-1.21,1.41-1.95,1.59-.51,1.04-1,2.09-1.48,3.15.34.5.46,1.12.25,1.69-.23.64-.82,1.07-1.5,1.18-2.28,5.43-4.16,11.08-5.61,16.89.15,0,.3.02.45.06,1.15.32,1.73,1.81,1.31,3.32s-1.7,2.47-2.85,2.15c-.05-.01-.09-.04-.14-.06-.22,1.08-.41,2.16-.6,3.24.23-.08.46-.11.69-.04.72.2,1.09,1.13.82,2.08-.27.95-1.07,1.55-1.79,1.35-.08-.02-.16-.06-.24-.1-.78,5.5-1.2,11.11-1.2,16.83,0,7.65.74,15.13,2.12,22.38.23-1.19.48-2.37.75-3.55-.57-1.74-.9-3.69-.9-5.75,0-.22.02-.43.02-.64-1.03-4.65-.55-10.3,1.68-15.85,1.64-4.07,3.99-7.52,6.68-10.11-2.93-4.87-2.15-12.77,2.42-19.68,2.76-4.16,6.38-7.2,10.05-8.78.17-4.34,1.88-9.22,5.13-13.62,1.51-2.04,3.21-3.8,5.02-5.24-.58-.25-1.08-.62-1.45-1.14-1.35-1.87-.5-4.78,1.89-6.51,2.39-1.72,5.42-1.6,6.77.27.68.94.8,2.15.45,3.34,3.74-1.03,7.36-.66,10.12,1.38,2.52,1.86,3.92,4.82,4.24,8.28,1.01-.64,2.03-1.27,3.07-1.88-.63-.39-1.14-.92-1.45-1.58-1.2-2.54.81-6.01,4.51-7.77,3.69-1.76,7.67-1.12,8.87,1.41.24.5.35,1.04.34,1.59,3.35-1.49,6.79-2.83,10.29-4.01-.04-.08-.07-.15-.1-.23-.65-1.81.97-4.05,3.61-5,2.64-.95,5.31-.24,5.96,1.57.1.28.14.57.14.87,3.03-.74,6.11-1.35,9.23-1.85v-44.77c-1.38.22-2.75.46-4.12.73ZM60.43,129.59c-2.38,1.49-5.14,1.37-6.16-.26-1.02-1.63.08-4.17,2.46-5.65,2.38-1.49,5.14-1.37,6.16.26,1.02,1.63-.08,4.17-2.46,5.65ZM81.03,103.17c2.64-.95,5.17-.65,5.64.67.47,1.32-1.29,3.15-3.93,4.09-2.64.95-5.17.65-5.64-.67-.47-1.32,1.29-3.15,3.93-4.09ZM79.97,132.83c-3.95,1.05-7.74-.31-8.46-3.02-.72-2.71,1.91-5.76,5.86-6.81,3.95-1.05,7.74.31,8.46,3.02s-1.91,5.76-5.86,6.81ZM88.51,118.08c-3.24.83-6.19.25-6.59-1.3s1.9-3.48,5.14-4.32c3.24-.84,6.19-.25,6.59,1.3.4,1.55-1.9,3.48-5.14,4.32Z" style="fill:#fff;"/></g><path id="star" d="M182.68,75.25c-3.58-4.73-25.68-23.51-29.45-28.1-5.43-5.72-8.84-13.04-6.02-20.05,1.62-4.34,3.6-6.29,7.38-10.79,3.5-4.11,7.32-8.62,10.77-12.67,1.72-2.03,2.86-3.32,2.74-3.57-.09-.3-1.64.5-4.36,1.83-5.21,2.56-14.23,6.99-19.18,9.43-3.32,1.64-6.34,3.15-10.15,4.12-11.37,3.06-20.68.05-30.55-5.23-5.51-2.71-11.64-5.72-17.05-8.38-2.46-1.2-3.94-1.95-4.19-1.81-.29.13.75,1.31,2.44,3.3,3.48,4.09,7.39,8.7,10.94,12.86,3.57,4.27,5.37,5.99,7.06,9.85,3.68,8.31-.13,15.33-6.77,22.49-4.12,4.92-22.97,21.35-26.7,26.03-.36.55-.11.57.51.33,6.39-2.88,29.53-17.64,39.6-22.77,2.09-6.42,5.53-14.43,11.21-23.68l4.69-7.64,4.69,7.64c5.71,9.3,9.16,17.36,11.25,23.79.68.32,1.35.66,2.01,1.02,6.03,2.96,30.1,18.05,36.8,21.33,1.75.84,2.53,1.16,2.31.67Z" style="fill:#fff;"/><path id="straight_blade" d="M125.62,31.32c-14.11,22.98-13.61,37.5-13.61,37.5v94.82l2.16-1.22c3.38-1.9,6.04-4.8,7.7-8.39.65-1.4.99-2.93.99-4.49v-84.17c0-3.38,2.76-7.33,2.76-7.33,0,0,2.75,3.95,2.75,7.33v84.29c.02,1.51.36,3,1,4.37.83,1.79,1.91,3.42,3.21,4.83,1.29,1.41,2.8,2.61,4.49,3.56l2.17,1.23v-94.82s.5-14.53-13.61-37.5Z" style="fill:#fff;"/><path id="grip" d="M130.44,204.25c.52-.84.82-1.84.82-2.9s-.3-2.05-.82-2.9c-.36-.58-.56-1.32-.56-2.08v-1.22c0-.77.2-1.51.56-2.09.2-.32.35-.67.48-1.03-2.45.43-5.99.65-10.64-.07.13.39.3.76.51,1.1.36.58.55,1.32.55,2.09v1.22c0,.76-.19,1.5-.55,2.08-.52.85-.83,1.85-.83,2.9s.3,2.06.83,2.9c.36.59.55,1.33.55,2.09v1.22c0,.76-.19,1.5-.55,2.09-.52.84-.83,1.84-.83,2.9,0,1.24.41,2.38,1.1,3.32.19.24.28.58.28.92v4.35c1.25-.26,2.66-.38,4.27-.38s3.02.13,4.27.38v-4.35c0-.35.1-.68.28-.92.69-.93,1.09-2.07,1.09-3.32,0-1.07-.3-2.06-.82-2.9-.36-.59-.56-1.33-.56-2.09v-1.22c0-.76.2-1.5.56-2.09Z" style="fill:#fff;"/><path id="hilt" d="M151.29,180.93c4.41-2.73,8.22-6.4,10.82-11.24,2.06-3.92,2.6-8.57,1.48-12.74-.01,8.3-10.12,15.38-24.36,18.19v-5.52l-2,1.08-.23.12c-.45.25-.89.51-1.28.76-.13.08-.25.17-.37.25-.07.05-.15.1-.22.15-.27.19-.53.39-.79.6-.75.6-1.44,1.28-2.09,2,0,0-.01,0-.02,0-1.15,1.28-2.13,2.72-2.91,4.3l-3.71,7.62-3.71-7.62c-.77-1.58-1.75-3.03-2.9-4.3,0,0-.01,0-.02,0-.65-.72-1.35-1.4-2.09-2-.26-.21-.52-.41-.79-.6-.03-.02-.06-.04-.1-.07-.16-.11-.33-.23-.49-.34-.07-.05-.15-.09-.22-.13-.35-.22-.7-.44-1.07-.63l-2.23-1.2v5.51c-14.23-2.81-24.34-9.89-24.35-18.19-1.12,4.17-.58,8.82,1.48,12.74,2.6,4.84,6.42,8.51,10.82,11.24-4.41,2.73-8.22,6.4-10.82,11.24-2.06,3.92-2.6,8.57-1.48,12.74.01-8.65,10.99-15.98,26.17-18.52,1.7.37,3.4.66,5.07.87,3.55.41,9.12.7,15.38-.28,1.04-.17,2.09-.36,3.14-.59,15.18,2.54,26.16,9.87,26.17,18.52,1.12-4.17.58-8.82-1.48-12.74-2.6-4.84-6.42-8.51-10.82-11.24Z" style="fill:#fff;"/><path id="Star_Core" d="M118.5,168.64c3.01,2.14,5.46,5.05,7.12,8.46,1.66-3.41,4.11-6.32,7.12-8.46.23-.16.46-.32.69-.47.52-.34,1.05-.66,1.61-.96-4.11-2.32-7.4-5.89-9.42-10.24-2.02,4.35-5.31,7.93-9.42,10.24.55.3,1.08.61,1.59.95.25.17.48.32.71.49Z" style="fill:#fff;"/><path id="pommel" d="M120.59,232.63c.69,2.15,2.11,5.03,5.03,6.61,2.92-1.59,4.34-4.46,5.03-6.61,1.86.44,3.06.4,3.06-2.16,0-4.47-3.62-5.57-8.09-5.57s-8.09,1.11-8.09,5.57c0,2.57,1.2,2.6,3.06,2.16Z" style="fill:#fff;"/></g></g></g></svg>