<?xml version="1.0" encoding="UTF-8"?><svg id="Layer_2" xmlns="http://www.w3.org/2000/svg" viewBox="0 0 536.66 315.21"><g id="Exports"><g id="sword"><g id="moon"><path d="M384.22,153.57v5.63c10.1,1.55,19.94,4.33,29.42,8.34,14.82,6.27,28.12,15.24,39.55,26.66,11.43,11.43,20.4,24.73,26.66,39.55,6.49,15.34,9.78,31.64,9.78,48.43,0,9.7-1.11,19.24-3.29,28.52,19.6-70.26-26.34-145.97-102.12-157.34v.21Z" style="fill:#4499c9;"/><path d="M238.96,282.18c.35,10.18,1.96,20.07,4.67,29.51-2.34-9.59-3.52-19.46-3.52-29.51,0-16.79,3.29-33.09,9.78-48.43,6.27-14.82,15.24-28.12,26.66-39.55,11.42-11.43,24.73-20.4,39.55-26.66,9.41-3.98,19.18-6.75,29.2-8.3v-5.92c-61.86,9.42-109.07,64.48-106.33,128.86Z" style="fill:#4499c9;"/><path d="M483.47,288.12c.09-1.85.13-3.72.13-5.59,0-2.94-.11-5.86-.32-8.75-1.02-.16-1.87-1.24-1.99-2.63-.12-1.36.51-2.55,1.45-2.91-.33-2.77-.76-5.51-1.28-8.21-1.43.22-3.25-2.26-4.13-5.66-.9-3.48-.46-6.6.97-6.99-.88-2.82-1.86-5.58-2.94-8.3-2.09.67-4.57-.81-5.64-3.43-.08-.19-.14-.37-.2-.56-.86.28-1.92-.17-2.53-1.14-.69-1.1-.52-2.45.38-3.01.66-.41,1.54-.28,2.23.26.3-.75.79-1.37,1.43-1.78-.32-.63-.63-1.26-.96-1.88-.14.11-.29.19-.46.22-.73.14-1.48-.53-1.66-1.5-.13-.71.07-1.38.48-1.74-2.54-4.5-5.36-8.82-8.44-12.94-.75.02-1.59-.32-2.26-.99-.89-.89-1.2-2.09-.84-2.97-2.22-2.71-4.55-5.31-6.99-7.81.08.29.08.53-.05.68-.46.5-2.17-.31-3.82-1.82-1.65-1.51-2.62-3.13-2.17-3.64.19-.21.6-.18,1.12.02-1.15-1.05-2.33-2.07-3.52-3.08-.02.04-.04.08-.07.11-.92,1.18-3.97.34-6.81-1.88-2.79-2.18-4.35-4.86-3.53-6.07-5.69-3.81-11.73-7.14-18.07-9.94-1.03.6-2.74.5-4.34-.39-1.1-.61-1.92-1.46-2.34-2.32-1.08-.4-2.16-.78-3.25-1.15,0,.16-.04.31-.09.47-.4,1.12-1.92,1.61-3.4,1.08-1.48-.53-2.36-1.86-1.96-2.99.03-.08.07-.15.11-.22-4.48-1.28-9.08-2.28-13.76-3.02v21.33c.08-.68.26-1.33.56-1.95,2.11-4.31,8.91-5.32,15.19-2.25,1.3.63,2.46,1.4,3.49,2.24,2.45-1.8,6.67-1.9,10.63.04,3.88,1.89,6.37,5.16,6.56,8.15,1.54-.5,3.58-.33,5.53.62,3.19,1.56,4.9,4.59,3.84,6.78-1.07,2.19-4.52,2.7-7.7,1.14-1.95-.95-3.34-2.45-3.89-3.98-2.47,1.69-6.59,1.73-10.47-.16-.35-.17-.68-.35-1.01-.54-2.58,3.5-8.81,4.15-14.61,1.32-4.64-2.26-7.69-6.12-8.13-9.72v7.1c3.53,1.88,5.8,4.83,5.8,8.13,0,2.62-1.43,5.02-3.78,6.83,7.01,1.24,13.81,3.09,20.34,5.51-.29-1.26-.2-2.5.34-3.6,1.69-3.47,7.16-4.28,12.21-1.81,5.05,2.47,7.78,7.28,6.08,10.75-.47.96-1.23,1.71-2.19,2.25,8.82,4.92,16.95,10.93,24.2,17.86-.32-2.55.17-4.99,1.37-6.81-.13-.23-.25-.47-.36-.71-1.66-3.64-.69-7.65,2.17-8.94,2.85-1.3,6.5.61,8.16,4.25.6,1.33.85,2.71.8,3.98,1.7,1.19,3.19,2.95,4.19,5.14,2.44,5.37,1.01,11.28-3.19,13.19-1.03.47-2.12.65-3.23.58,3.13,3.82,6.02,7.84,8.66,12.03.38-.78.95-1.33,1.67-1.52,1.88-.5,4.06,1.62,4.88,4.73.02.06.03.13.04.19.2-.18.43-.31.69-.37,1.41-.37,3.05,1.22,3.67,3.55.62,2.34-.03,4.53-1.44,4.9-1.26.33-2.71-.91-3.44-2.85-.21.32-.46.58-.74.77,4.92,9.69,8.55,20.15,10.66,31.15.73-3.8,1.27-7.67,1.63-11.6-.62-.46-1.07-1.29-1.15-2.26-.12-1.39.54-2.6,1.52-2.94ZM441.18,228.35c-1.69,1.57-4.68,1.1-6.69-1.06-2.01-2.16-2.27-5.18-.58-6.75,1.69-1.57,4.68-1.1,6.69,1.06,2.01,2.16,2.27,5.18.58,6.75Z" style="fill:#576392;"/><path d="M341.47,166.39c.14.17.24.36.3.57.4,1.55-1.9,3.48-5.14,4.32-3.24.83-6.19.25-6.59-1.3-.06-.24-.05-.49,0-.74-5.43,1.65-10.69,3.68-15.76,6.06,0,.02.01.05.02.07.28,1.47-1.38,3.01-3.69,3.45-1.09.21-2.12.13-2.95-.16-1.09.6-2.17,1.22-3.24,1.85,0,.03.02.05.03.08.22,1.17-.85,2.36-2.39,2.65-.66.13-1.3.06-1.83-.14-5.21,3.38-10.14,7.15-14.74,11.28.25-.05.45-.03.57.08.5.5-.64,2.44-2.54,4.33-1.9,1.9-3.84,3.03-4.33,2.54-.16-.16-.13-.48.01-.88-4.03,4.19-7.76,8.68-11.15,13.43.21.04.41.11.57.24,1.18.92.34,3.97-1.88,6.81-1.89,2.42-4.16,3.91-5.52,3.74-.34.61-.69,1.23-1.02,1.84.33.74.27,1.75-.24,2.67-.47.85-1.21,1.41-1.95,1.59-.51,1.04-1,2.09-1.48,3.15.34.5.46,1.12.25,1.69-.23.64-.82,1.07-1.5,1.18-2.28,5.43-4.16,11.08-5.61,16.89.15,0,.3.02.45.06,1.15.32,1.73,1.81,1.31,3.32s-1.7,2.47-2.85,2.15c-.05-.01-.09-.04-.14-.06-.22,1.08-.41,2.16-.6,3.24.23-.08.46-.11.69-.04.72.2,1.09,1.13.82,2.08-.27.95-1.07,1.55-1.79,1.35-.08-.02-.16-.06-.24-.1-.78,5.5-1.2,11.11-1.2,16.83,0,7.65.74,15.13,2.12,22.38.23-1.19.48-2.37.75-3.55-.57-1.74-.9-3.69-.9-5.75,0-.22.02-.43.02-.64-1.03-4.65-.55-10.3,1.68-15.85,1.64-4.07,3.99-7.52,6.68-10.11-2.93-4.87-2.15-12.77,2.42-19.68,2.76-4.16,6.38-7.2,10.05-8.78.17-4.34,1.88-9.22,5.13-13.62,1.51-2.04,3.21-3.8,5.02-5.24-.58-.25-1.08-.62-1.45-1.14-1.35-1.87-.5-4.78,1.89-6.51,2.39-1.72,5.42-1.6,6.77.27.68.94.8,2.15.45,3.34,3.74-1.03,7.36-.66,10.12,1.38,2.52,1.86,3.92,4.82,4.24,8.28,1.01-.64,2.03-1.27,3.07-1.88-.63-.39-1.14-.92-1.45-1.58-1.2-2.54.81-6.01,4.51-7.77,3.69-1.76,7.67-1.12,8.87,1.41.24.5.35,1.04.34,1.59,3.35-1.49,6.79-2.83,10.29-4.01-.04-.08-.07-.15-.1-.23-.65-1.81.97-4.05,3.61-5,2.64-.95,5.31-.24,5.96,1.57.1.28.14.57.14.87,3.03-.74,6.11-1.35,9.23-1.85v-44.77c-1.38.22-2.75.46-4.12.73ZM299.57,205.56c-2.38,1.49-5.14,1.37-6.16-.26-1.02-1.63.08-4.17,2.46-5.65,2.38-1.49,5.14-1.37,6.16.26,1.02,1.63-.08,4.17-2.46,5.65ZM320.16,179.14c2.64-.95,5.17-.65,5.64.67.47,1.32-1.29,3.15-3.93,4.09-2.64.95-5.17.65-5.64-.67-.47-1.32,1.29-3.15,3.93-4.09ZM319.11,208.8c-3.95,1.05-7.74-.31-8.46-3.02-.72-2.71,1.91-5.76,5.86-6.81,3.95-1.05,7.74.31,8.46,3.02.72,2.71-1.91,5.76-5.86,6.81ZM327.65,194.05c-3.24.83-6.19.25-6.59-1.3s1.9-3.48,5.14-4.32c3.24-.84,6.19-.25,6.59,1.3.4,1.55-1.9,3.48-5.14,4.32Z" style="fill:#576392;"/></g><g id="star_burst"><path d="M421.82,151.22c-3.58-4.73-25.68-23.51-29.45-28.1-5.43-5.72-8.84-13.04-6.02-20.05,1.62-4.34,3.6-6.29,7.38-10.79,3.5-4.11,7.32-8.62,10.77-12.67,1.72-2.03,2.86-3.32,2.74-3.57-.09-.3-1.64.5-4.36,1.83-5.21,2.56-14.23,6.99-19.18,9.43-3.32,1.64-6.34,3.15-10.15,4.12-11.37,3.06-20.68.05-30.55-5.23-5.51-2.71-11.64-5.72-17.05-8.38-2.46-1.2-3.94-1.95-4.19-1.81-.29.13.75,1.31,2.44,3.3,3.48,4.09,7.39,8.7,10.94,12.86,3.57,4.27,5.37,5.99,7.06,9.85,3.68,8.31-.13,15.33-6.77,22.49-4.12,4.92-22.97,21.35-26.7,26.03-.36.55-.11.57.51.33,6.39-2.88,29.53-17.64,39.6-22.77,2.09-6.42,5.53-14.43,11.21-23.68l4.69-7.64,4.69,7.64c5.71,9.3,9.16,17.36,11.25,23.79.68.32,1.35.66,2.01,1.02,6.03,2.96,30.1,18.05,36.8,21.33,1.75.84,2.53,1.16,2.31.67Z" style="fill:#fdd700;"/></g><g id="straight_blade"><path d="M364.76,107.29c-14.11,22.98-13.61,37.5-13.61,37.5v94.82l2.16-1.22c3.38-1.9,6.04-4.8,7.7-8.39.65-1.4.99-2.93.99-4.49v-84.17c0-3.38,2.76-7.33,2.76-7.33,0,0,2.75,3.95,2.75,7.33v84.29c.02,1.51.36,3,1,4.37.83,1.79,1.91,3.42,3.21,4.83,1.29,1.41,2.8,2.61,4.49,3.56l2.17,1.23v-94.82s.5-14.53-13.61-37.5Z" style="fill:#dbf0f5;"/></g><g id="grip"><path d="M369.58,280.22c.52-.84.82-1.84.82-2.9s-.3-2.05-.82-2.9c-.36-.58-.56-1.32-.56-2.08v-1.22c0-.77.2-1.51.56-2.09.2-.32.35-.67.48-1.03-2.45.43-5.99.65-10.64-.07.13.39.3.76.51,1.1.36.58.55,1.32.55,2.09v1.22c0,.76-.19,1.5-.55,2.08-.52.85-.83,1.85-.83,2.9s.3,2.06.83,2.9c.36.59.55,1.33.55,2.09v1.22c0,.76-.19,1.5-.55,2.09-.52.84-.83,1.84-.83,2.9,0,1.24.41,2.38,1.1,3.32.19.24.28.58.28.92v4.35c1.25-.26,2.66-.38,4.27-.38s3.02.13,4.27.38v-4.35c0-.35.1-.68.28-.92.69-.93,1.09-2.07,1.09-3.32,0-1.07-.3-2.06-.82-2.9-.36-.59-.56-1.33-.56-2.09v-1.22c0-.76.2-1.5.56-2.09Z" style="fill:#576392;"/></g><g id="hilt"><path d="M390.42,256.9c4.41-2.73,8.22-6.4,10.82-11.24,2.06-3.92,2.6-8.57,1.48-12.74-.01,8.3-10.12,15.38-24.36,18.19v-5.52l-2,1.08-.23.12c-.45.25-.89.51-1.28.76-.13.08-.25.17-.37.25-.07.05-.15.1-.22.15-.27.19-.53.39-.79.6-.75.6-1.44,1.28-2.09,2,0,0-.01,0-.02,0-1.15,1.28-2.13,2.72-2.91,4.3l-3.71,7.62-3.71-7.62c-.77-1.58-1.75-3.03-2.9-4.3,0,0-.01,0-.02,0-.65-.72-1.35-1.4-2.09-2-.26-.21-.52-.41-.79-.6-.03-.02-.06-.04-.1-.07-.16-.11-.33-.23-.49-.34-.07-.05-.15-.09-.22-.13-.35-.22-.7-.44-1.07-.63l-2.23-1.2v5.51c-14.23-2.81-24.34-9.89-24.35-18.19-1.12,4.17-.58,8.82,1.48,12.74,2.6,4.84,6.42,8.51,10.82,11.24-4.41,2.73-8.22,6.4-10.82,11.24-2.06,3.92-2.6,8.57-1.48,12.74.01-8.65,10.99-15.98,26.17-18.52,1.7.37,3.4.66,5.07.87,3.55.41,9.12.7,15.38-.28,1.04-.17,2.09-.36,3.14-.59,15.18,2.54,26.16,9.87,26.17,18.52,1.12-4.17.58-8.82-1.48-12.74-2.6-4.84-6.42-8.51-10.82-11.24Z" style="fill:#4499c9;"/></g><g id="Star_Core"><path d="M357.64,244.61c3.01,2.14,5.46,5.05,7.12,8.46,1.66-3.41,4.11-6.32,7.12-8.46.23-.16.46-.32.69-.47.52-.34,1.05-.66,1.61-.96-4.11-2.32-7.4-5.89-9.42-10.24-2.02,4.35-5.31,7.93-9.42,10.24.55.3,1.08.61,1.59.95.25.17.48.32.71.49Z" style="fill:#fdd700;"/></g><g id="pommel"><path d="M359.72,308.6c.69,2.15,2.11,5.03,5.03,6.61,2.92-1.59,4.34-4.46,5.03-6.61,1.86.44,3.06.4,3.06-2.16,0-4.47-3.62-5.57-8.09-5.57s-8.09,1.11-8.09,5.57c0,2.57,1.2,2.6,3.06,2.16Z" style="fill:#4499c9;"/></g></g><g id="txt_-_horizon"><path d="M73.15,0c0,1.4,0,2.77,0,4.11,0,1.33,0,2.63,0,3.91,0,1.27,0,2.51,0,3.73,0,1.22,0,2.41,0,3.58,0,1.17,0,2.32,0,3.45,0,1.13,0,2.25,0,3.35,0,1.1,0,2.19,0,3.27,0,1.08,0,2.14,0,3.21,0,1.06,0,2.12,0,3.17,0,1.05,0,2.11,0,3.16,0,1.05,0,2.11,0,3.17,0,1.06,0,2.13,0,3.21,0,1.08,0,2.16,0,3.27,0,1.1,0,2.22,0,3.35,0,1.13,0,2.28,0,3.45,0,1.17,0,2.36,0,3.58,0,1.22,0,2.46,0,3.73,0,1.27,0,2.57,0,3.91,0,1.33,0,2.7,0,4.11-1.23.07-2.34.13-3.38.2-1.04.06-2,.12-2.94.17-.94.06-1.85.11-2.79.17-.94.06-1.9.11-2.94.18-1.04.06-2.15.13-3.38.21,0-1.32,0-2.57,0-3.74,0-1.18,0-2.3,0-3.37,0-1.08,0-2.11,0-3.12,0-1.01,0-2.01,0-3,0-.99,0-1.99,0-3,0-1.01,0-2.05,0-3.12,0-1.08,0-2.19,0-3.37,0-1.18,0-2.42,0-3.74-1.41.05-2.76.1-4.06.15-1.3.05-2.55.1-3.77.15-1.21.05-2.39.09-3.53.14-1.14.05-2.26.09-3.36.13-1.1.04-2.17.09-3.24.13-1.07.04-2.12.09-3.18.13-1.06.04-2.11.09-3.18.13-1.07.04-2.14.09-3.24.14s-2.21.09-3.36.14c-1.14.05-2.32.1-3.53.15-1.21.05-2.47.11-3.77.17s-2.65.12-4.06.18c0,1.38,0,2.67,0,3.9,0,1.23,0,2.39,0,3.52s0,2.2,0,3.26c0,1.06,0,2.09,0,3.13,0,1.04,0,2.07,0,3.13,0,1.06,0,2.13,0,3.26s0,2.29,0,3.52,0,2.52,0,3.9c-1.23.09-2.34.17-3.38.25s-2,.15-2.93.22-1.85.14-2.79.21-1.9.15-2.93.23c-1.04.08-2.14.17-3.38.26v-12.03c0-1.25,0-2.48,0-3.68V15.71c0-1.2,0-2.43,0-3.68V0h15.43c0,1.38,0,2.67,0,3.9,0,1.23,0,2.39,0,3.52s0,2.2,0,3.26,0,2.09,0,3.13,0,2.07,0,3.13,0,2.13,0,3.26,0,2.29,0,3.52c0,1.23,0,2.52,0,3.9,1.41-.04,2.76-.08,4.06-.12,1.3-.04,2.55-.07,3.77-.11,1.21-.03,2.39-.07,3.53-.1,1.15-.03,2.26-.06,3.36-.09,1.1-.03,2.17-.06,3.24-.09,1.07-.03,2.12-.06,3.18-.09s2.11-.06,3.18-.08c1.07-.03,2.14-.06,3.24-.08,1.1-.03,2.21-.06,3.36-.09s2.32-.06,3.53-.09c1.21-.03,2.47-.06,3.77-.09s2.65-.07,4.06-.1c0-1.32,0-2.57,0-3.74,0-1.18,0-2.3,0-3.37s0-2.11,0-3.12c0-1.01,0-2.01,0-3,0-.99,0-1.99,0-3,0-1.01,0-2.05,0-3.12,0-1.08,0-2.19,0-3.37,0-1.18,0-2.42,0-3.74h15.43Z" style="fill:#dbf0f5;"/><path d="M146.31,0c1.34,0,2.65.16,3.89.46,1.24.3,2.42.74,3.51,1.3,1.09.56,2.09,1.24,2.98,2.02s1.67,1.65,2.31,2.61c.64.96,1.15,1.99,1.49,3.08.35,1.09.53,2.25.53,3.44,0,1.34,0,2.63,0,3.86,0,1.23,0,2.42,0,3.56,0,1.14,0,2.25,0,3.33,0,1.08,0,2.13,0,3.16,0,1.03,0,2.05,0,3.06s0,2.02,0,3.03,0,2.03,0,3.06c0,1.03,0,2.08,0,3.16s0,2.18,0,3.33c0,1.14,0,2.33,0,3.56,0,1.23,0,2.52,0,3.86,0,1.02-.14,2.02-.4,2.98-.26.96-.64,1.88-1.12,2.75-.48.87-1.07,1.69-1.75,2.45s-1.45,1.45-2.29,2.07c-.84.62-1.76,1.16-2.74,1.61-.98.45-2.01.82-3.09,1.08-1.08.26-2.2.42-3.36.46-1.41.05-2.76.1-4.05.15s-2.55.09-3.76.14c-1.21.05-2.38.09-3.53.14-1.14.04-2.26.09-3.35.13-1.09.04-2.17.09-3.23.13-1.06.04-2.12.09-3.18.13s-2.11.09-3.18.13c-1.06.05-2.14.09-3.23.14-1.09.05-2.21.1-3.35.15-1.14.05-2.32.1-3.53.16-1.21.06-2.46.11-3.76.17-1.3.06-2.65.12-4.05.19-1.36.07-2.68-.04-3.92-.29s-2.43-.65-3.52-1.18c-1.09-.53-2.09-1.19-2.98-1.96-.89-.77-1.66-1.65-2.3-2.62-.64-.97-1.14-2.03-1.48-3.16-.34-1.13-.52-2.33-.52-3.58,0-1.41,0-2.75,0-4.05s0-2.53,0-3.73c0-1.2,0-2.36,0-3.49,0-1.13,0-2.23,0-3.31,0-1.08,0-2.15,0-3.21s0-2.11,0-3.17,0-2.13,0-3.21c0-1.08,0-2.18,0-3.31,0-1.13,0-2.29,0-3.49,0-1.2,0-2.44,0-3.73s0-2.64,0-4.05c0-1.07.14-2.11.39-3.11.25-1,.63-1.96,1.11-2.86.48-.9,1.06-1.74,1.74-2.51.67-.77,1.44-1.47,2.28-2.09.84-.62,1.76-1.15,2.74-1.59.98-.44,2.02-.78,3.1-1.01,1.09-.23,2.22-.35,3.39-.35h42.2ZM104.74,50.94c1.35-.05,2.65-.1,3.9-.14,1.25-.05,2.45-.09,3.62-.13s2.29-.08,3.39-.12c1.1-.04,2.17-.08,3.22-.11,1.05-.04,2.09-.07,3.11-.11,1.02-.03,2.04-.07,3.06-.1s2.03-.07,3.06-.1c1.02-.03,2.06-.07,3.11-.1,1.05-.03,2.12-.07,3.22-.1,1.1-.03,2.23-.07,3.39-.1,1.17-.03,2.37-.07,3.62-.11s2.55-.07,3.9-.11c0-1.44,0-2.8,0-4.11,0-1.31,0-2.55,0-3.76s0-2.37,0-3.5,0-2.24,0-3.33c0-1.09,0-2.17,0-3.24,0-1.08,0-2.15,0-3.24,0-1.09,0-2.2,0-3.33,0-1.13,0-2.3,0-3.5s0-2.45,0-3.76c0-1.31,0-2.67,0-4.11-1.35.01-2.65.02-3.9.03-1.25.01-2.45.02-3.62.03s-2.29.02-3.39.03c-1.1,0-2.17.02-3.22.03-1.05,0-2.09.02-3.11.03-1.02,0-2.04.02-3.06.03s-2.03.02-3.05.03-2.06.02-3.11.03-2.12.02-3.22.03c-1.1.01-2.23.02-3.39.03-1.17.01-2.37.02-3.62.04-1.25.01-2.55.03-3.9.04,0,1.34,0,2.62,0,3.85,0,1.23,0,2.41,0,3.55s0,2.24,0,3.32c0,1.07,0,2.12,0,3.15,0,1.03,0,2.04,0,3.05,0,1.01,0,2.01,0,3.02,0,1.01,0,2.02,0,3.05,0,1.03,0,2.08,0,3.15,0,1.07,0,2.18,0,3.32,0,1.14,0,2.32,0,3.55,0,1.23,0,2.51,0,3.85Z" style="fill:#dbf0f5;"/><path d="M248.51,28.46c0,1.15-.19,2.26-.53,3.32s-.86,2.07-1.5,3c-.65.93-1.43,1.79-2.33,2.56s-1.91,1.44-3.01,1.99c-1.1.56-2.29,1-3.54,1.3-1.25.3-2.57.47-3.93.48-.28,0-.42,0-.7,0,.73.72,1.46,1.46,2.2,2.19.74.74,1.48,1.48,2.23,2.22.75.74,1.5,1.49,2.25,2.24.75.75,1.5,1.5,2.25,2.24.75.75,1.49,1.5,2.24,2.24.74.74,1.48,1.48,2.21,2.22.73.74,1.45,1.47,2.16,2.19,0,.9,0,1.58,0,2.25,0,.68,0,1.35,0,2.25-1.27,0-2.42.01-3.49.02-1.07,0-2.07.01-3.03.02s-1.91.02-2.88.02c-.97,0-1.96.02-3.03.03-1.07,0-2.22.02-3.49.03-.99-1-1.92-1.93-2.8-2.82-.88-.89-1.72-1.73-2.52-2.54-.8-.81-1.58-1.59-2.34-2.36-.76-.77-1.5-1.51-2.24-2.26-.74-.75-1.49-1.5-2.24-2.27-.76-.77-1.53-1.55-2.34-2.36-.8-.81-1.64-1.66-2.52-2.55-.88-.89-1.81-1.83-2.8-2.83-1.37.02-2.62.04-3.8.06-1.18.02-2.28.04-3.34.05-1.06.02-2.09.03-3.11.05s-2.05.04-3.11.05c-1.06.02-2.17.04-3.34.06-1.18.02-2.43.05-3.8.07.2,0,.3.17.3.51,0,0-.2,0-.3-.08,0,1.33,0,2.54,0,3.68,0,1.14,0,2.21,0,3.24,0,1.03,0,2.02,0,3.02,0,.99,0,1.99,0,3.02,0,1.03,0,2.1,0,3.24,0,1.14,0,2.36,0,3.68-1.23.03-2.35.05-3.38.08-1.04.02-2,.05-2.94.07s-1.85.04-2.79.07c-.94.02-1.9.05-2.94.07-1.04.03-2.15.06-3.38.09,0-1.38,0-2.73,0-4.04,0-1.31,0-2.59,0-3.83,0-1.25,0-2.46,0-3.65,0-1.19,0-2.36,0-3.5,0-1.14,0-2.27,0-3.37,0-1.11,0-2.19,0-3.27,0-1.08,0-2.14,0-3.19,0-1.05,0-2.1,0-3.14,0-1.04,0-2.08,0-3.12,0-1.04,0-2.08,0-3.12,0-1.04,0-2.09,0-3.14,0-1.05,0-2.12,0-3.19,0-1.08,0-2.16,0-3.27,0-1.11,0-2.23,0-3.37,0-1.14,0-2.31,0-3.5,0-1.19,0-2.41,0-3.65,0-1.25,0-2.52,0-3.83,0-1.31,0-2.66,0-4.04,1.42,0,2.8,0,4.14,0h3.9c1.27,0,2.5,0,3.7,0h10.24c1.09,0,2.16,0,3.24,0h9.64c1.09,0,2.19,0,3.3,0h14.54c1.34,0,2.71,0,4.13,0,1.36,0,2.68.16,3.93.45,1.25.3,2.44.73,3.54,1.28,1.1.55,2.11,1.22,3,1.98.9.76,1.68,1.62,2.32,2.55s1.15,1.94,1.5,3,.53,2.17.53,3.32c0,1.26,0,2.4,0,3.46,0,1.06,0,2.05,0,3.01,0,.96,0,1.9,0,2.86,0,.96,0,1.95,0,3.01,0,1.06,0,2.2,0,3.46ZM192.26,28.14c1.35-.01,2.65-.03,3.9-.04,1.25-.01,2.45-.02,3.62-.03,1.17-.01,2.29-.02,3.39-.03,1.1,0,2.17-.02,3.23-.03,1.05,0,2.09-.02,3.11-.02,1.02,0,2.04-.02,3.06-.02,1.02,0,2.03-.01,3.06-.02s2.06-.01,3.11-.02c1.05,0,2.12-.01,3.23-.02,1.1,0,2.23-.01,3.39-.02,1.17,0,2.37-.01,3.62-.02s2.55-.01,3.9-.02c0-1.46,0-2.73,0-3.91,0-1.18,0-2.27,0-3.37s0-2.18,0-3.37c0-1.18,0-2.46,0-3.91-1.35,0-2.65,0-3.9,0s-2.45,0-3.62,0c-1.17,0-2.29,0-3.39,0-1.1,0-2.17,0-3.22,0-1.05,0-2.09,0-3.11,0-1.02,0-2.04,0-3.06.01s-2.03,0-3.06.01-2.06,0-3.11.01c-1.05,0-2.12,0-3.22.01-1.1,0-2.23,0-3.39.01s-2.37.01-3.62.02c-1.25,0-2.55.01-3.9.02,0,1.18,0,2.24,0,3.23s0,1.91,0,2.8c0,.89,0,1.77,0,2.66,0,.89,0,1.81,0,2.8,0,.99,0,2.05,0,3.23Z" style="fill:#dbf0f5;"/><path d="M264.15,0h15.53c0,1.44,0,2.83,0,4.19,0,1.36,0,2.68,0,3.97,0,1.29,0,2.55,0,3.78,0,1.23,0,2.43,0,3.61,0,1.18,0,2.34,0,3.48,0,1.14,0,2.26,0,3.37,0,1.11,0,2.21,0,3.3,0,1.09,0,2.17,0,3.25,0,1.08,0,2.16,0,3.24,0,1.08,0,2.16,0,3.25,0,1.09,0,2.19,0,3.3,0,1.11,0,2.23,0,3.37,0,1.14,0,2.3,0,3.48,0,1.18,0,2.38,0,3.61,0,1.23,0,2.49,0,3.78,0,1.29,0,2.61,0,3.97,0,1.36,0,2.76,0,4.19-1.24,0-2.36,0-3.41,0-1.04,0-2.01,0-2.96,0-.94,0-1.86,0-2.81,0-.94,0-1.91,0-2.96,0-1.04,0-2.16,0-3.41,0,0-1.44,0-2.83,0-4.19s0-2.68,0-3.97v-3.77c0-1.23,0-2.43,0-3.61s0-2.34,0-3.48v-6.67c0-1.09,0-2.17,0-3.25v-3.24c0-1.08,0-2.16,0-3.25v-3.3c0-1.11,0-2.23,0-3.37v-3.48c0-1.18,0-2.38,0-3.61s0-2.49,0-3.77v-3.97c0-1.36,0-2.75,0-4.19Z" style="fill:#dbf0f5;"/><path d="M290.42,0h71.66c0,1.38,0,2.58,0,3.7,0,1.12,0,2.15,0,3.19,0,1.03,0,2.07,0,3.19s0,2.33,0,3.7c-1.13.82-2.22,1.61-3.29,2.38-1.07.77-2.1,1.52-3.11,2.25-1.01.73-2,1.44-2.96,2.14-.96.7-1.91,1.37-2.83,2.04-.93.67-1.83,1.32-2.73,1.96-.89.64-1.77,1.27-2.65,1.9-.87.62-1.73,1.24-2.59,1.85-.86.61-1.7,1.22-2.55,1.83-.85.61-1.69,1.21-2.54,1.82s-1.7,1.21-2.55,1.82c-.86.61-1.72,1.22-2.59,1.85-.87.62-1.75,1.25-2.65,1.89-.89.64-1.8,1.28-2.73,1.94-.93.66-1.87,1.33-2.83,2.02s-1.95,1.39-2.96,2.11c-1.01.72-2.05,1.46-3.12,2.21-1.07.76-2.16,1.53-3.29,2.34,1.37.01,2.69.03,3.97.04,1.28.01,2.52.03,3.72.04,1.2.01,2.37.03,3.51.04,1.14.01,2.25.03,3.34.04,1.09.01,2.16.03,3.22.05,1.06.02,2.1.03,3.13.05,1.04.02,2.06.03,3.09.05s2.06.03,3.09.05c1.04.02,2.08.03,3.13.05,1.06.02,2.13.04,3.22.06,1.09.02,2.2.04,3.34.06,1.14.02,2.31.04,3.51.07,1.2.02,2.44.05,3.72.08s2.6.05,3.97.08c0,1.35,0,2.53,0,3.63s0,2.11,0,3.13c0,1.01,0,2.03,0,3.13,0,1.1,0,2.28,0,3.63-1.43-.04-2.83-.08-4.2-.11-1.37-.04-2.7-.07-4-.1-1.3-.03-2.58-.06-3.83-.09s-2.48-.06-3.68-.09c-1.2-.03-2.39-.05-3.55-.08-1.16-.03-2.31-.05-3.45-.07-1.13-.02-2.25-.05-3.36-.07-1.11-.02-2.21-.04-3.29-.06-1.09-.02-2.17-.04-3.25-.06-1.08-.02-2.15-.04-3.23-.06-1.08-.02-2.15-.04-3.23-.05-1.08-.02-2.16-.03-3.25-.05-1.09-.02-2.19-.03-3.3-.05-1.11-.02-2.23-.03-3.36-.05-1.13-.01-2.28-.03-3.45-.04s-2.35-.03-3.55-.04c-1.2-.01-2.43-.03-3.68-.04-1.25-.01-2.53-.02-3.83-.04-1.31-.01-2.64-.02-4.01-.03-1.37-.01-2.76-.02-4.2-.03,0-1.35,0-2.53,0-3.63s0-2.11,0-3.12c0-1.01,0-2.03,0-3.13,0-1.1,0-2.28,0-3.63,1.13-.8,2.23-1.58,3.29-2.34,1.07-.76,2.1-1.5,3.12-2.22,1.01-.72,2-1.42,2.96-2.11.96-.69,1.91-1.36,2.83-2.02.93-.66,1.83-1.31,2.73-1.94.89-.64,1.78-1.26,2.65-1.89.87-.62,1.73-1.23,2.59-1.84.86-.61,1.7-1.22,2.55-1.82.85-.6,1.69-1.21,2.54-1.81s1.7-1.21,2.55-1.82c.86-.61,1.72-1.23,2.59-1.85.87-.62,1.75-1.25,2.65-1.89.89-.64,1.8-1.29,2.73-1.95.93-.66,1.87-1.34,2.83-2.03.96-.69,1.95-1.4,2.96-2.13,1.01-.73,2.05-1.47,3.11-2.24,1.07-.77,2.16-1.56,3.29-2.37-1.37,0-2.69-.01-3.97-.02s-2.52-.01-3.72-.01c-1.2,0-2.37,0-3.51-.01-1.14,0-2.25,0-3.34-.01s-2.16,0-3.22-.01c-1.06,0-2.1,0-3.13,0-1.04,0-2.06,0-3.09,0-1.03,0-2.06,0-3.09,0-1.04,0-2.08,0-3.13,0-1.06,0-2.13,0-3.22,0-1.09,0-2.2,0-3.34,0s-2.31,0-3.51,0c-1.2,0-2.44,0-3.72,0s-2.6,0-3.97,0c0-1.33,0-2.49,0-3.56s0-2.07,0-3.07c0-.99,0-1.99,0-3.07,0-1.08,0-2.24,0-3.56Z" style="fill:#dbf0f5;"/><path d="M434.34,0c1.15,0,2.27.12,3.35.35s2.12.57,3.09,1.01c.98.44,1.89.97,2.74,1.59s1.61,1.32,2.29,2.1c.68.77,1.27,1.62,1.75,2.52.48.9.86,1.86,1.12,2.86.26,1,.4,2.04.4,3.12,0,1.41,0,2.76,0,4.05s0,2.54,0,3.74,0,2.36,0,3.49c0,1.13,0,2.23,0,3.32,0,1.08,0,2.15,0,3.21,0,1.06,0,2.12,0,3.18,0,1.06,0,2.13,0,3.21,0,1.08,0,2.19,0,3.32,0,1.13,0,2.29,0,3.49,0,1.2,0,2.44,0,3.74,0,1.29,0,2.64,0,4.05,0,1.25-.18,2.45-.53,3.59-.34,1.13-.85,2.19-1.49,3.17-.64.97-1.42,1.85-2.31,2.62s-1.89,1.43-2.98,1.96-2.27.93-3.51,1.18-2.55.35-3.89.29c-1.41-.07-2.75-.13-4.05-.19s-2.55-.12-3.76-.18c-1.21-.06-2.38-.11-3.53-.16-1.14-.05-2.26-.1-3.35-.15-1.09-.05-2.17-.1-3.23-.14-1.06-.05-2.12-.09-3.17-.14-1.06-.04-2.11-.09-3.18-.13-1.06-.04-2.14-.09-3.23-.13-1.09-.04-2.21-.09-3.35-.13-1.14-.05-2.32-.09-3.53-.14s-2.46-.09-3.76-.14c-1.3-.05-2.65-.1-4.06-.15-1.17-.04-2.3-.2-3.39-.46-1.09-.26-2.13-.63-3.11-1.08-.98-.45-1.9-1-2.74-1.62-.84-.62-1.61-1.32-2.28-2.07-.67-.76-1.26-1.58-1.74-2.45-.48-.87-.85-1.79-1.11-2.75-.25-.96-.39-1.96-.39-2.98,0-1.35,0-2.63,0-3.87,0-1.23,0-2.42,0-3.57,0-1.15,0-2.25,0-3.33,0-1.08,0-2.13,0-3.16s0-2.05,0-3.06c0-1.01,0-2.02,0-3.03,0-1.01,0-2.03,0-3.06s0-2.09,0-3.16c0-1.08,0-2.19,0-3.33,0-1.15,0-2.33,0-3.57,0-1.24,0-2.52,0-3.87,0-1.19.18-2.35.52-3.44.34-1.09.84-2.13,1.48-3.08.64-.96,1.41-1.83,2.3-2.61.89-.78,1.89-1.46,2.98-2.02,1.09-.56,2.27-1,3.52-1.3,1.25-.3,2.56-.46,3.92-.46h42.2ZM392.9,49.65c1.35.04,2.65.08,3.9.11,1.25.04,2.45.07,3.62.11,1.17.04,2.29.07,3.39.1,1.1.03,2.17.07,3.22.1,1.05.03,2.09.07,3.11.1,1.02.03,2.04.07,3.06.1s2.03.07,3.05.1,2.06.07,3.11.11c1.05.04,2.12.07,3.22.11,1.1.04,2.23.08,3.39.12,1.17.04,2.37.09,3.62.13,1.25.05,2.55.09,3.9.15,0-1.34,0-2.62,0-3.85s0-2.41,0-3.55,0-2.25,0-3.32c0-1.08,0-2.12,0-3.15,0-1.03,0-2.05,0-3.05,0-1.01,0-2.01,0-3.02,0-1.01,0-2.02,0-3.05,0-1.03,0-2.08,0-3.15s0-2.18,0-3.32c0-1.14,0-2.32,0-3.55,0-1.23,0-2.51,0-3.85-1.35-.01-2.65-.03-3.9-.04-1.25-.01-2.45-.02-3.62-.04-1.17-.01-2.29-.02-3.39-.03s-2.17-.02-3.22-.03c-1.05-.01-2.09-.02-3.11-.03s-2.04-.02-3.05-.03c-1.02,0-2.03-.02-3.06-.03s-2.06-.02-3.11-.03c-1.05,0-2.12-.02-3.22-.03-1.1,0-2.23-.02-3.39-.03-1.17,0-2.37-.02-3.62-.03-1.25-.01-2.55-.02-3.9-.03,0,1.44,0,2.8,0,4.11,0,1.31,0,2.56,0,3.76,0,1.21,0,2.37,0,3.51,0,1.13,0,2.24,0,3.33s0,2.17,0,3.25,0,2.15,0,3.25c0,1.09,0,2.2,0,3.33,0,1.13,0,2.3,0,3.51,0,1.21,0,2.46,0,3.76,0,1.31,0,2.67,0,4.11Z" style="fill:#dbf0f5;"/><path d="M521.03,0h15.63v71.66c-1.27-.1-2.42-.19-3.49-.27-1.07-.08-2.06-.16-3.03-.23-.97-.07-1.91-.15-2.88-.22s-1.96-.15-3.03-.23-2.21-.17-3.49-.26c-.89-1.11-1.76-2.19-2.61-3.24-.85-1.05-1.67-2.07-2.48-3.06-.81-.99-1.59-1.96-2.37-2.9-.77-.94-1.53-1.87-2.27-2.77s-1.47-1.79-2.18-2.65c-.72-.87-1.42-1.72-2.12-2.56-.7-.84-1.38-1.67-2.07-2.49s-1.36-1.63-2.03-2.44c-.67-.81-1.35-1.61-2.02-2.41-.67-.8-1.34-1.6-2.02-2.4-.67-.8-1.35-1.6-2.03-2.41-.68-.81-1.37-1.62-2.07-2.44s-1.4-1.65-2.12-2.49c-.72-.84-1.44-1.69-2.18-2.55-.74-.86-1.5-1.74-2.27-2.64-.77-.9-1.56-1.81-2.37-2.74-.81-.93-1.63-1.89-2.48-2.86-.85-.98-1.72-1.98-2.62-3,0,1.39,0,2.74,0,4.03,0,1.3,0,2.55,0,3.76,0,1.21,0,2.39,0,3.54,0,1.15,0,2.27,0,3.36,0,1.1,0,2.17,0,3.24s0,2.12,0,3.16c0,1.05,0,2.09,0,3.14,0,1.05,0,2.1,0,3.16,0,1.06,0,2.14,0,3.24,0,1.1,0,2.22,0,3.36,0,1.15,0,2.32,0,3.54,0,1.21,0,2.46,0,3.76,0,1.3,0,2.64,0,4.03-1.23-.08-2.34-.14-3.38-.21s-2-.12-2.94-.18c-.94-.06-1.85-.11-2.79-.17s-1.9-.11-2.94-.17c-1.04-.06-2.15-.13-3.38-.2,0-1.41,0-2.77,0-4.11s0-2.64,0-3.91c0-1.27,0-2.52,0-3.74,0-1.22,0-2.41,0-3.58,0-1.17,0-2.32,0-3.46,0-1.13,0-2.25,0-3.35,0-1.1,0-2.19,0-3.27,0-1.08,0-2.15,0-3.21,0-1.06,0-2.12,0-3.18,0-1.06,0-2.11,0-3.16,0-1.06,0-2.11,0-3.18,0-1.06,0-2.13,0-3.21,0-1.08,0-2.17,0-3.27,0-1.1,0-2.22,0-3.35,0-1.13,0-2.28,0-3.46,0-1.17,0-2.37,0-3.58,0-1.22,0-2.46,0-3.74s0-2.58,0-3.91c0-1.34,0-2.7,0-4.11h15.92c.94,1.06,1.86,2.1,2.75,3.11.89,1.01,1.76,1.99,2.61,2.95.85.96,1.67,1.9,2.48,2.82.81.92,1.6,1.82,2.37,2.71s1.53,1.76,2.28,2.62c.75.86,1.49,1.71,2.21,2.56.73.84,1.45,1.68,2.16,2.51.72.83,1.43,1.66,2.14,2.49s1.42,1.65,2.13,2.49c.71.83,1.42,1.67,2.13,2.51.72.84,1.44,1.69,2.16,2.55.73.86,1.47,1.74,2.21,2.62.75.89,1.51,1.79,2.28,2.72.77.92,1.56,1.87,2.37,2.84.81.97,1.63,1.96,2.48,2.98.85,1.02,1.71,2.07,2.6,3.15.89,1.08,1.81,2.2,2.75,3.35,0-1.45,0-2.84,0-4.18s0-2.64,0-3.9c0-1.26,0-2.48,0-3.67,0-1.19,0-2.35,0-3.49,0-1.14,0-2.25,0-3.36,0-1.1,0-2.19,0-3.28,0-1.09,0-2.17,0-3.25s0-2.18,0-3.28c0-1.1,0-2.22,0-3.36,0-1.14,0-2.3,0-3.49,0-1.19,0-2.41,0-3.66,0-1.26,0-2.55,0-3.9,0-1.34,0-2.73,0-4.18Z" style="fill:#dbf0f5;"/></g><g id="txt_-_innovation_team"><g id="innovation"><path d="M0,93.05h4.65v32.51H0v-32.51Z" style="fill:#fdd700;"/><path d="M41.03,93.05h4.42v32.51h-4l-21.73-25.04v25.04h-4.37v-32.51h3.77l21.92,25.25v-25.25Z" style="fill:#fdd700;"/><path d="M81.58,93.05h4.42v32.51h-4l-21.73-25.04v25.04h-4.37v-32.51h3.77l21.92,25.25v-25.25Z" style="fill:#fdd700;"/><path d="M112.25,92.59c5.02,0,9.2,1.59,12.55,4.77,3.34,3.18,5.01,7.17,5.01,11.96s-1.69,8.76-5.06,11.9c-3.37,3.14-7.62,4.71-12.75,4.71s-8.98-1.57-12.24-4.71c-3.26-3.14-4.9-7.08-4.9-11.81s1.64-8.87,4.93-12.05c3.29-3.18,7.44-4.77,12.46-4.77ZM112.43,97.01c-3.72,0-6.78,1.16-9.17,3.49s-3.59,5.3-3.59,8.91,1.2,6.42,3.6,8.75c2.4,2.33,5.41,3.49,9.02,3.49s6.65-1.19,9.08-3.56c2.43-2.37,3.64-5.33,3.64-8.87s-1.21-6.34-3.64-8.69c-2.43-2.35-5.41-3.53-8.94-3.53Z" style="fill:#fdd700;"/><path d="M157.55,93.05h4.63l-13.74,32.65h-1.05l-14.01-32.65h4.69l9.78,22.83,9.71-22.83Z" style="fill:#fdd700;"/><path d="M175.64,92.86h3.27l14.58,32.7h-4.76l-4.33-9.63h-13.87l-4.06,9.63h-4.78l13.96-32.7ZM182.48,111.78l-5.25-11.78-4.86,11.78h10.11Z" style="fill:#fdd700;"/><path d="M192.85,93h27.16v4.14h-11.33v28.41h-4.68v-28.41h-11.15v-4.14Z" style="fill:#fdd700;"/><path d="M227.78,93.05h4.65v32.51h-4.65v-32.51Z" style="fill:#fdd700;"/><path d="M258.94,92.59c5.02,0,9.2,1.59,12.55,4.77,3.34,3.18,5.01,7.17,5.01,11.96s-1.69,8.76-5.06,11.9c-3.37,3.14-7.62,4.71-12.76,4.71s-8.98-1.57-12.24-4.71c-3.26-3.14-4.9-7.08-4.9-11.81s1.64-8.87,4.93-12.05c3.29-3.18,7.44-4.77,12.46-4.77ZM259.12,97.01c-3.72,0-6.78,1.16-9.17,3.49-2.39,2.33-3.59,5.3-3.59,8.91s1.2,6.42,3.6,8.75c2.4,2.33,5.41,3.49,9.02,3.49s6.65-1.19,9.08-3.56c2.43-2.37,3.64-5.33,3.64-8.87s-1.21-6.34-3.64-8.69-5.41-3.53-8.94-3.53Z" style="fill:#fdd700;"/><path d="M311.39,93.05h4.42v32.51h-4l-21.73-25.04v25.04h-4.37v-32.51h3.77l21.92,25.25v-25.25Z" style="fill:#fdd700;"/></g><g id="team"><path d="M409.27,93h27.16v4.14h-11.33v28.41h-4.68v-28.41h-11.15v-4.14Z" style="fill:#fdd700;"/><path d="M444.16,93.05h18.43v4.14h-13.78v9.91h13.31v4.17h-13.31v10.1h14.22v4.14h-18.87v-32.46Z" style="fill:#fdd700;"/><path d="M481.71,92.86h3.27l14.58,32.7h-4.76l-4.33-9.63h-13.87l-4.06,9.63h-4.78l13.96-32.7ZM488.55,111.78l-5.25-11.78-4.86,11.78h10.11Z" style="fill:#fdd700;"/><path d="M532.31,93.05h4.35v32.51h-4.68v-25.29l-10,12.57h-.86l-10.11-12.57v25.29h-4.65v-32.51h4.41l10.8,13.35,10.74-13.35Z" style="fill:#fdd700;"/></g></g></g></svg>