<?xml version="1.0" encoding="UTF-8"?><svg id="Layer_2" xmlns="http://www.w3.org/2000/svg" viewBox="0 0 327.84 335.99"><g id="Exports"><g id="logo_-_combomark_-_Horizon_-_vert_stack"><g id="sword"><g id="moon"><path d="M182.89,77.6v5.63c10.1,1.55,19.94,4.33,29.42,8.34,14.82,6.27,28.12,15.24,39.55,26.66,11.43,11.43,20.4,24.73,26.66,39.55,6.49,15.34,9.78,31.64,9.78,48.43,0,9.7-1.11,19.24-3.29,28.52,19.6-70.26-26.34-145.97-102.12-157.34v.21Z" style="fill:#fff;"/><path d="M38.21,206.21c.35,10.18,1.96,20.07,4.67,29.51-2.34-9.59-3.52-19.46-3.52-29.51,0-16.79,3.29-33.09,9.78-48.43,6.27-14.82,15.24-28.12,26.66-39.55,11.42-11.43,24.73-20.4,39.55-26.66,9.41-3.98,19.18-6.75,29.2-8.3v-5.92c-61.86,9.42-109.07,64.48-106.33,128.86Z" style="fill:#fff;"/><path d="M282.43,212.15c.09-1.85.13-3.72.13-5.59,0-2.94-.11-5.86-.32-8.75-1.02-.16-1.87-1.24-1.99-2.63-.12-1.36.51-2.55,1.45-2.91-.33-2.77-.76-5.51-1.28-8.21-1.43.22-3.25-2.26-4.13-5.66-.9-3.48-.46-6.6.97-6.99-.88-2.82-1.86-5.58-2.94-8.3-2.09.67-4.57-.81-5.64-3.43-.08-.19-.14-.37-.2-.56-.86.28-1.92-.17-2.53-1.14-.69-1.1-.52-2.45.38-3.01.66-.41,1.54-.28,2.23.26.3-.75.79-1.37,1.43-1.78-.32-.63-.63-1.26-.96-1.88-.14.11-.29.19-.46.22-.73.14-1.48-.53-1.66-1.5-.13-.71.07-1.38.48-1.74-2.54-4.5-5.36-8.82-8.44-12.94-.75.02-1.59-.32-2.26-.99-.89-.89-1.2-2.09-.84-2.97-2.22-2.71-4.55-5.31-6.99-7.81.08.29.08.53-.05.68-.46.5-2.17-.31-3.82-1.82-1.65-1.51-2.62-3.13-2.17-3.64.19-.21.6-.18,1.12.02-1.15-1.05-2.33-2.07-3.52-3.08-.02.04-.04.08-.07.11-.92,1.18-3.97.34-6.81-1.88-2.79-2.18-4.35-4.86-3.53-6.07-5.69-3.81-11.73-7.14-18.07-9.94-1.03.6-2.74.5-4.34-.39-1.1-.61-1.92-1.46-2.34-2.32-1.08-.4-2.16-.78-3.25-1.15,0,.16-.04.31-.09.47-.4,1.12-1.92,1.61-3.4,1.08-1.48-.53-2.36-1.86-1.96-2.99.03-.08.07-.15.11-.22-4.48-1.28-9.08-2.28-13.76-3.02v21.33c.08-.68.26-1.33.56-1.95,2.11-4.31,8.91-5.32,15.19-2.25,1.3.63,2.46,1.4,3.49,2.24,2.45-1.8,6.67-1.9,10.63.04,3.88,1.89,6.37,5.16,6.56,8.15,1.54-.5,3.58-.33,5.53.62,3.19,1.56,4.9,4.59,3.84,6.78-1.07,2.19-4.52,2.7-7.7,1.14-1.95-.95-3.34-2.45-3.89-3.98-2.47,1.69-6.59,1.73-10.47-.16-.35-.17-.68-.35-1.01-.54-2.58,3.5-8.81,4.15-14.61,1.32-4.64-2.26-7.69-6.12-8.13-9.72v7.1c3.53,1.88,5.8,4.83,5.8,8.13,0,2.62-1.43,5.02-3.78,6.83,7.01,1.24,13.81,3.09,20.34,5.51-.29-1.26-.2-2.5.34-3.6,1.69-3.47,7.16-4.28,12.21-1.81,5.05,2.47,7.78,7.28,6.08,10.75-.47.96-1.23,1.71-2.19,2.25,8.82,4.92,16.95,10.93,24.2,17.86-.32-2.55.17-4.99,1.37-6.81-.13-.23-.25-.47-.36-.71-1.66-3.64-.69-7.65,2.17-8.94s6.5.61,8.16,4.25c.6,1.33.85,2.71.8,3.98,1.7,1.19,3.19,2.95,4.19,5.14,2.44,5.37,1.01,11.28-3.19,13.19-1.03.47-2.12.65-3.23.58,3.13,3.82,6.02,7.84,8.66,12.03.38-.78.95-1.33,1.67-1.52,1.88-.5,4.06,1.62,4.88,4.73.02.06.03.13.04.19.2-.18.43-.31.69-.37,1.41-.37,3.05,1.22,3.67,3.55.62,2.34-.03,4.53-1.44,4.9-1.26.33-2.71-.91-3.44-2.85-.21.32-.46.58-.74.77,4.92,9.69,8.55,20.15,10.66,31.15.73-3.8,1.27-7.67,1.63-11.6-.62-.46-1.07-1.29-1.15-2.26-.12-1.39.54-2.6,1.52-2.94ZM240.14,152.38c-1.69,1.57-4.68,1.1-6.69-1.06-2.01-2.16-2.27-5.18-.58-6.75s4.68-1.1,6.69,1.06c2.01,2.16,2.27,5.18.58,6.75Z" style="fill:#fff;"/><path d="M140.43,90.42c.14.17.24.36.3.57.4,1.55-1.9,3.48-5.14,4.32-3.24.83-6.19.25-6.59-1.3-.06-.24-.05-.49,0-.74-5.43,1.65-10.69,3.68-15.76,6.06,0,.02.01.05.02.07.28,1.47-1.38,3.01-3.69,3.45-1.09.21-2.12.13-2.95-.16-1.09.6-2.17,1.22-3.24,1.85,0,.03.02.05.03.08.22,1.17-.85,2.36-2.39,2.65-.66.13-1.3.06-1.83-.14-5.21,3.38-10.14,7.15-14.74,11.28.25-.05.45-.03.57.08.5.5-.64,2.44-2.54,4.33-1.9,1.9-3.84,3.03-4.33,2.54-.16-.16-.13-.48.01-.88-4.03,4.19-7.76,8.68-11.15,13.43.21.04.41.11.57.24,1.18.92.34,3.97-1.88,6.81-1.89,2.42-4.16,3.91-5.52,3.74-.34.61-.69,1.23-1.02,1.84.33.74.27,1.75-.24,2.67-.47.85-1.21,1.41-1.95,1.59-.51,1.04-1,2.09-1.48,3.15.34.5.46,1.12.25,1.69-.23.64-.82,1.07-1.5,1.18-2.28,5.43-4.16,11.08-5.61,16.89.15,0,.3.02.45.06,1.15.32,1.73,1.81,1.31,3.32-.43,1.51-1.7,2.47-2.85,2.15-.05-.01-.09-.04-.14-.06-.22,1.08-.41,2.16-.6,3.24.23-.08.46-.11.69-.04.72.2,1.09,1.13.82,2.08-.27.95-1.07,1.55-1.79,1.35-.08-.02-.16-.06-.24-.1-.78,5.5-1.2,11.11-1.2,16.83,0,7.65.74,15.13,2.12,22.38.23-1.19.48-2.37.75-3.55-.57-1.74-.9-3.69-.9-5.75,0-.22.02-.43.02-.64-1.03-4.65-.55-10.3,1.68-15.85,1.64-4.07,3.99-7.52,6.68-10.11-2.93-4.87-2.15-12.77,2.42-19.68,2.76-4.16,6.38-7.2,10.05-8.78.17-4.34,1.88-9.22,5.13-13.62,1.51-2.04,3.21-3.8,5.02-5.24-.58-.25-1.08-.62-1.45-1.14-1.35-1.87-.5-4.78,1.89-6.51,2.39-1.72,5.42-1.6,6.77.27.68.94.8,2.15.45,3.34,3.74-1.03,7.36-.66,10.12,1.38,2.52,1.86,3.92,4.82,4.24,8.28,1.01-.64,2.03-1.27,3.07-1.88-.63-.39-1.14-.92-1.45-1.58-1.2-2.54.81-6.01,4.51-7.77,3.69-1.76,7.67-1.12,8.87,1.41.24.5.35,1.04.34,1.59,3.35-1.49,6.79-2.83,10.29-4.01-.04-.08-.07-.15-.1-.23-.65-1.81.97-4.05,3.61-5,2.64-.95,5.31-.24,5.96,1.57.1.28.14.57.14.87,3.03-.74,6.11-1.35,9.23-1.85v-44.77c-1.38.22-2.75.46-4.12.73ZM98.53,129.59c-2.38,1.49-5.14,1.37-6.16-.26-1.02-1.63.08-4.17,2.46-5.65,2.38-1.49,5.14-1.37,6.16.26,1.02,1.63-.08,4.17-2.46,5.65ZM119.13,103.17c2.64-.95,5.17-.65,5.64.67.47,1.32-1.29,3.15-3.93,4.09-2.64.95-5.17.65-5.64-.67-.47-1.32,1.29-3.15,3.93-4.09ZM118.07,132.83c-3.95,1.05-7.74-.31-8.46-3.02-.72-2.71,1.91-5.76,5.86-6.81,3.95-1.05,7.74.31,8.46,3.02s-1.91,5.76-5.86,6.81ZM126.61,118.08c-3.24.83-6.19.25-6.59-1.3s1.9-3.48,5.14-4.32c3.24-.84,6.19-.25,6.59,1.3.4,1.55-1.9,3.48-5.14,4.32Z" style="fill:#fff;"/></g><path id="star" d="M220.78,75.25c-3.58-4.73-25.68-23.51-29.45-28.1-5.43-5.72-8.84-13.04-6.02-20.05,1.62-4.34,3.6-6.29,7.38-10.79,3.5-4.11,7.32-8.62,10.77-12.67,1.72-2.03,2.86-3.32,2.74-3.57-.09-.3-1.64.5-4.36,1.83-5.21,2.56-14.23,6.99-19.18,9.43-3.32,1.64-6.34,3.15-10.15,4.12-11.37,3.06-20.68.05-30.55-5.23-5.51-2.71-11.64-5.72-17.05-8.38-2.46-1.2-3.94-1.95-4.19-1.81-.29.13.75,1.31,2.44,3.3,3.48,4.09,7.39,8.7,10.94,12.86,3.57,4.27,5.37,5.99,7.06,9.85,3.68,8.31-.13,15.33-6.77,22.49-4.12,4.92-22.97,21.35-26.7,26.03-.36.55-.11.57.51.33,6.39-2.88,29.53-17.64,39.6-22.77,2.09-6.42,5.53-14.43,11.21-23.68l4.69-7.64,4.69,7.64c5.71,9.3,9.16,17.36,11.25,23.79.68.32,1.35.66,2.01,1.02,6.03,2.96,30.1,18.05,36.8,21.33,1.75.84,2.53,1.16,2.31.67Z" style="fill:#fff;"/><path id="straight_blade" d="M163.72,31.32c-14.11,22.98-13.61,37.5-13.61,37.5v94.82l2.16-1.22c3.38-1.9,6.04-4.8,7.7-8.39.65-1.4.99-2.93.99-4.49v-84.17c0-3.38,2.76-7.33,2.76-7.33,0,0,2.75,3.95,2.75,7.33v84.29c.02,1.51.36,3,1,4.37.83,1.79,1.91,3.42,3.21,4.83,1.29,1.41,2.8,2.61,4.49,3.56l2.17,1.23v-94.82s.5-14.53-13.61-37.5Z" style="fill:#fff;"/><path id="grip" d="M168.54,204.25c.52-.84.82-1.84.82-2.9s-.3-2.05-.82-2.9c-.36-.58-.56-1.32-.56-2.08v-1.22c0-.77.2-1.51.56-2.09.2-.32.35-.67.48-1.03-2.45.43-5.99.65-10.64-.07.13.39.3.76.51,1.1.36.58.55,1.32.55,2.09v1.22c0,.76-.19,1.5-.55,2.08-.52.85-.83,1.85-.83,2.9s.3,2.06.83,2.9c.36.59.55,1.33.55,2.09v1.22c0,.76-.19,1.5-.55,2.09-.52.84-.83,1.84-.83,2.9,0,1.24.41,2.38,1.1,3.32.19.24.28.58.28.92v4.35c1.25-.26,2.66-.38,4.27-.38s3.02.13,4.27.38v-4.35c0-.35.1-.68.28-.92.69-.93,1.09-2.07,1.09-3.32,0-1.07-.3-2.06-.82-2.9-.36-.59-.56-1.33-.56-2.09v-1.22c0-.76.2-1.5.56-2.09Z" style="fill:#fff;"/><path id="hilt" d="M189.39,180.93c4.41-2.73,8.22-6.4,10.82-11.24,2.06-3.92,2.6-8.57,1.48-12.74-.01,8.3-10.12,15.38-24.36,18.19v-5.52l-2,1.08-.23.12c-.45.25-.89.51-1.28.76-.13.08-.25.17-.37.25-.07.05-.15.1-.22.15-.27.19-.53.39-.79.6-.75.6-1.44,1.28-2.09,2,0,0-.01,0-.02,0-1.15,1.28-2.13,2.72-2.91,4.3l-3.71,7.62-3.71-7.62c-.77-1.58-1.75-3.03-2.9-4.3,0,0-.01,0-.02,0-.65-.72-1.35-1.4-2.09-2-.26-.21-.52-.41-.79-.6-.03-.02-.06-.04-.1-.07-.16-.11-.33-.23-.49-.34-.07-.05-.15-.09-.22-.13-.35-.22-.7-.44-1.07-.63l-2.23-1.2v5.51c-14.23-2.81-24.34-9.89-24.35-18.19-1.12,4.17-.58,8.82,1.48,12.74,2.6,4.84,6.42,8.51,10.82,11.24-4.41,2.73-8.22,6.4-10.82,11.24-2.06,3.92-2.6,8.57-1.48,12.74.01-8.65,10.99-15.98,26.17-18.52,1.7.37,3.4.66,5.07.87,3.55.41,9.12.7,15.38-.28,1.04-.17,2.09-.36,3.14-.59,15.18,2.54,26.16,9.87,26.17,18.52,1.12-4.17.58-8.82-1.48-12.74-2.6-4.84-6.42-8.51-10.82-11.24Z" style="fill:#fff;"/><path id="Star_Core" d="M156.6,168.64c3.01,2.14,5.46,5.05,7.12,8.46,1.66-3.41,4.11-6.32,7.12-8.46.23-.16.46-.32.69-.47.52-.34,1.05-.66,1.61-.96-4.11-2.32-7.4-5.89-9.42-10.24-2.02,4.35-5.31,7.93-9.42,10.24.55.3,1.08.61,1.59.95.25.17.48.32.71.49Z" style="fill:#fff;"/><path id="pommel" d="M158.69,232.63c.69,2.15,2.11,5.03,5.03,6.61,2.92-1.59,4.34-4.46,5.03-6.61,1.86.44,3.06.4,3.06-2.16,0-4.47-3.62-5.57-8.09-5.57s-8.09,1.11-8.09,5.57c0,2.57,1.2,2.6,3.06,2.16Z" style="fill:#fff;"/></g><g id="txt_-_horizon"><path d="M44.69,254.94c0,.86,0,1.69,0,2.51,0,.81,0,1.61,0,2.39,0,.78,0,1.54,0,2.28,0,.74,0,1.47,0,2.19,0,.72,0,1.42,0,2.11,0,.69,0,1.37,0,2.04s0,1.34,0,1.99c0,.66,0,1.31,0,1.96,0,.65,0,1.29,0,1.94,0,.64,0,1.29,0,1.93,0,.64,0,1.29,0,1.94,0,.65,0,1.3,0,1.96,0,.66,0,1.32,0,1.99,0,.67,0,1.35,0,2.04,0,.69,0,1.39,0,2.11,0,.72,0,1.44,0,2.19,0,.74,0,1.5,0,2.28,0,.78,0,1.57,0,2.39s0,1.65,0,2.51c-.75.04-1.43.08-2.06.12s-1.22.07-1.79.11c-.57.03-1.13.07-1.7.1-.57.03-1.16.07-1.79.11-.63.04-1.31.08-2.06.13,0-.81,0-1.57,0-2.29,0-.72,0-1.4,0-2.06,0-.66,0-1.29,0-1.91,0-.62,0-1.23,0-1.83,0-.61,0-1.21,0-1.83,0-.62,0-1.25,0-1.91,0-.66,0-1.34,0-2.06,0-.72,0-1.48,0-2.29-.86.03-1.69.06-2.48.09-.8.03-1.56.06-2.3.09s-1.46.06-2.16.08c-.7.03-1.38.05-2.05.08-.67.03-1.33.05-1.98.08s-1.3.05-1.94.08c-.65.03-1.29.05-1.94.08-.65.03-1.31.05-1.98.08s-1.35.06-2.05.09c-.7.03-1.42.06-2.16.09-.74.03-1.51.07-2.3.1s-1.62.07-2.48.11c0,.84,0,1.63,0,2.38,0,.75,0,1.46,0,2.15s0,1.34,0,1.99c0,.65,0,1.28,0,1.91,0,.63,0,1.26,0,1.91,0,.65,0,1.3,0,1.99s0,1.4,0,2.15,0,1.54,0,2.38c-.75.06-1.43.11-2.06.15s-1.22.09-1.79.14-1.13.09-1.7.13-1.16.09-1.79.14c-.63.05-1.31.1-2.06.16v-7.35c0-.76,0-1.51,0-2.25v-24.58c0-.74,0-1.48,0-2.25v-7.35h9.42c0,.84,0,1.63,0,2.38s0,1.46,0,2.15,0,1.34,0,1.99,0,1.28,0,1.91,0,1.26,0,1.91,0,1.3,0,1.99,0,1.4,0,2.15c0,.75,0,1.54,0,2.38.86-.03,1.69-.05,2.48-.07.8-.02,1.56-.04,2.3-.07.74-.02,1.46-.04,2.16-.06.7-.02,1.38-.04,2.05-.06.67-.02,1.33-.04,1.98-.05.65-.02,1.3-.03,1.94-.05s1.29-.03,1.94-.05c.65-.02,1.31-.03,1.98-.05.67-.02,1.35-.03,2.05-.05s1.42-.04,2.16-.05c.74-.02,1.51-.04,2.3-.06s1.62-.04,2.48-.06c0-.81,0-1.57,0-2.29,0-.72,0-1.4,0-2.06s0-1.29,0-1.91c0-.62,0-1.23,0-1.83,0-.61,0-1.21,0-1.83,0-.62,0-1.25,0-1.91,0-.66,0-1.34,0-2.06,0-.72,0-1.48,0-2.29h9.42Z" style="fill:#fff;"/><path d="M89.38,254.94c.82,0,1.62.1,2.38.28.76.18,1.48.45,2.14.8.67.34,1.28.76,1.82,1.23s1.02,1.01,1.41,1.59c.39.58.7,1.22.91,1.88.21.67.32,1.37.32,2.1,0,.82,0,1.61,0,2.36s0,1.48,0,2.18c0,.7,0,1.37,0,2.03,0,.66,0,1.3,0,1.93,0,.63,0,1.25,0,1.87s0,1.23,0,1.85,0,1.24,0,1.87c0,.63,0,1.27,0,1.93s0,1.33,0,2.03c0,.7,0,1.42,0,2.18,0,.75,0,1.54,0,2.36,0,.62-.08,1.23-.24,1.82-.16.59-.39,1.15-.68,1.68-.3.53-.66,1.03-1.07,1.5s-.88.89-1.4,1.27c-.52.38-1.08.71-1.67.99-.6.28-1.23.5-1.89.66-.66.16-1.35.26-2.05.28-.86.03-1.68.06-2.48.09s-1.56.06-2.3.09c-.74.03-1.46.06-2.15.08-.7.03-1.38.05-2.05.08-.67.03-1.33.05-1.98.08-.65.03-1.3.05-1.94.08s-1.29.05-1.94.08c-.65.03-1.31.06-1.98.09-.67.03-1.35.06-2.05.09-.7.03-1.41.06-2.15.1-.74.03-1.5.07-2.3.11-.79.04-1.62.08-2.48.12-.83.04-1.63-.02-2.4-.17s-1.48-.4-2.15-.72c-.67-.32-1.28-.73-1.82-1.2-.54-.47-1.01-1.01-1.4-1.6-.39-.59-.69-1.24-.9-1.93-.21-.69-.32-1.42-.32-2.19,0-.86,0-1.68,0-2.47s0-1.55,0-2.28c0-.73,0-1.44,0-2.13,0-.69,0-1.36,0-2.02,0-.66,0-1.31,0-1.96s0-1.29,0-1.94,0-1.3,0-1.96c0-.66,0-1.33,0-2.02,0-.69,0-1.4,0-2.13,0-.73,0-1.49,0-2.28s0-1.61,0-2.47c0-.65.08-1.29.24-1.9.16-.61.38-1.2.68-1.74.29-.55.65-1.06,1.06-1.54.41-.47.88-.9,1.39-1.28.51-.38,1.07-.7,1.67-.97.6-.27,1.23-.48,1.9-.62s1.36-.22,2.07-.22h25.78ZM63.99,286.06c.83-.03,1.62-.06,2.38-.09.76-.03,1.5-.05,2.21-.08s1.4-.05,2.07-.07c.67-.02,1.33-.05,1.97-.07.64-.02,1.27-.04,1.9-.06.63-.02,1.25-.04,1.87-.06s1.24-.04,1.87-.06c.63-.02,1.26-.04,1.9-.06.64-.02,1.3-.04,1.97-.06.67-.02,1.36-.04,2.07-.06.71-.02,1.45-.04,2.21-.07s1.56-.05,2.38-.07c0-.88,0-1.71,0-2.51,0-.8,0-1.56,0-2.3s0-1.45,0-2.14,0-1.37,0-2.03c0-.67,0-1.32,0-1.98,0-.66,0-1.32,0-1.98,0-.67,0-1.34,0-2.03,0-.69,0-1.4,0-2.14s0-1.5,0-2.3c0-.8,0-1.63,0-2.51-.83,0-1.62.01-2.38.02-.76,0-1.5.01-2.21.02s-1.4.01-2.07.02c-.67,0-1.33.01-1.97.02-.64,0-1.27.01-1.9.02-.63,0-1.25.01-1.87.02s-1.24.01-1.87.02-1.26.01-1.9.02-1.3.01-1.97.02c-.67,0-1.36.01-2.07.02-.71,0-1.45.01-2.21.02-.76,0-1.56.02-2.38.02,0,.82,0,1.6,0,2.35,0,.75,0,1.47,0,2.17s0,1.37,0,2.03c0,.66,0,1.3,0,1.92,0,.63,0,1.25,0,1.86,0,.62,0,1.23,0,1.84,0,.62,0,1.23,0,1.86,0,.63,0,1.27,0,1.92,0,.66,0,1.33,0,2.03,0,.7,0,1.42,0,2.17s0,1.53,0,2.35Z" style="fill:#fff;"/><path d="M151.82,272.33c0,.7-.11,1.38-.33,2.03s-.52,1.26-.92,1.83c-.39.57-.87,1.1-1.42,1.56s-1.16.88-1.84,1.22c-.67.34-1.4.61-2.16.79-.77.19-1.57.29-2.4.29-.17,0-.26,0-.43,0,.44.44.89.89,1.34,1.34.45.45.91.9,1.36,1.36.46.45.91.91,1.37,1.37.46.46.92.91,1.37,1.37.46.46.91.91,1.37,1.37.45.45.9.91,1.35,1.36.45.45.89.9,1.32,1.34,0,.55,0,.96,0,1.38,0,.41,0,.83,0,1.38-.78,0-1.48,0-2.13.01-.65,0-1.26,0-1.85.01s-1.17,0-1.76.01c-.59,0-1.2.01-1.85.02-.65,0-1.35.01-2.13.02-.61-.61-1.17-1.18-1.71-1.73s-1.05-1.06-1.54-1.55c-.49-.5-.96-.97-1.43-1.44-.46-.47-.92-.93-1.37-1.38-.45-.46-.91-.92-1.37-1.38-.46-.47-.94-.95-1.43-1.44s-1-1.01-1.54-1.56c-.54-.54-1.11-1.12-1.71-1.73-.84.01-1.6.02-2.32.04-.72.01-1.39.02-2.04.03-.65.01-1.28.02-1.9.03s-1.25.02-1.9.03c-.65.01-1.32.02-2.04.04-.72.01-1.49.03-2.32.04.12,0,.18.1.18.31,0,0-.12,0-.18-.05,0,.81,0,1.55,0,2.25s0,1.35,0,1.98c0,.63,0,1.24,0,1.84,0,.61,0,1.21,0,1.84,0,.63,0,1.28,0,1.98,0,.7,0,1.44,0,2.25-.75.02-1.43.03-2.07.05-.63.01-1.22.03-1.8.04s-1.13.03-1.7.04c-.57.01-1.16.03-1.8.05-.63.02-1.31.03-2.07.05,0-.85,0-1.67,0-2.47,0-.8,0-1.58,0-2.34,0-.76,0-1.51,0-2.23,0-.73,0-1.44,0-2.14,0-.7,0-1.38,0-2.06,0-.68,0-1.34,0-2,0-.66,0-1.31,0-1.95,0-.64,0-1.28,0-1.92,0-.64,0-1.27,0-1.9,0-.63,0-1.27,0-1.9,0-.64,0-1.28,0-1.92,0-.64,0-1.29,0-1.95,0-.66,0-1.32,0-2,0-.68,0-1.36,0-2.06,0-.7,0-1.41,0-2.14,0-.73,0-1.47,0-2.23,0-.76,0-1.54,0-2.34,0-.8,0-1.62,0-2.47.87,0,1.71,0,2.53,0h2.38c.77,0,1.53,0,2.26,0h6.26c.66,0,1.32,0,1.98,0h5.89c.66,0,1.34,0,2.02,0h8.88c.82,0,1.66,0,2.53,0,.83,0,1.64.1,2.4.28.77.18,1.49.45,2.16.78.67.34,1.29.74,1.83,1.21.55.46,1.02.99,1.42,1.56s.7,1.18.92,1.83.32,1.33.32,2.03c0,.77,0,1.47,0,2.12,0,.65,0,1.25,0,1.84,0,.59,0,1.16,0,1.75,0,.59,0,1.19,0,1.84,0,.65,0,1.34,0,2.12ZM117.45,272.13c.83,0,1.62-.02,2.38-.02.76,0,1.5-.01,2.21-.02.71,0,1.4-.01,2.07-.02.67,0,1.33-.01,1.97-.02.64,0,1.28-.01,1.9-.02.63,0,1.25,0,1.87-.01.62,0,1.24,0,1.87-.01s1.26,0,1.9-.01c.64,0,1.3,0,1.97-.01.67,0,1.36,0,2.07-.01.71,0,1.45,0,2.21-.01s1.56,0,2.38-.01c0-.89,0-1.67,0-2.39s0-1.39,0-2.06,0-1.33,0-2.06c0-.72,0-1.5,0-2.39-.83,0-1.62,0-2.38,0-.76,0-1.5,0-2.21,0-.71,0-1.4,0-2.07,0-.67,0-1.33,0-1.97,0-.64,0-1.28,0-1.9,0-.63,0-1.25,0-1.87,0s-1.24,0-1.87,0-1.26,0-1.9,0c-.64,0-1.3,0-1.97,0-.67,0-1.36,0-2.07,0s-1.45,0-2.21.01c-.76,0-1.56,0-2.38.01,0,.72,0,1.37,0,1.97s0,1.17,0,1.71c0,.55,0,1.08,0,1.63,0,.55,0,1.11,0,1.71,0,.6,0,1.25,0,1.97Z" style="fill:#fff;"/><path d="M161.37,254.94h9.48c0,.88,0,1.73,0,2.56,0,.83,0,1.64,0,2.43,0,.79,0,1.56,0,2.31,0,.75,0,1.49,0,2.21,0,.72,0,1.43,0,2.12,0,.7,0,1.38,0,2.06,0,.68,0,1.35,0,2.01,0,.67,0,1.33,0,1.99,0,.66,0,1.32,0,1.98,0,.66,0,1.32,0,1.99,0,.67,0,1.34,0,2.01,0,.68,0,1.36,0,2.06,0,.7,0,1.4,0,2.12,0,.72,0,1.45,0,2.21,0,.75,0,1.52,0,2.31,0,.79,0,1.59,0,2.42,0,.83,0,1.68,0,2.56-.76,0-1.44,0-2.08,0-.64,0-1.23,0-1.81,0-.58,0-1.14,0-1.72,0-.58,0-1.17,0-1.81,0-.64,0-1.32,0-2.08,0,0-.88,0-1.73,0-2.56s0-1.64,0-2.42v-2.31c0-.75,0-1.49,0-2.21s0-1.43,0-2.12v-4.07c0-.67,0-1.33,0-1.99v-1.98c0-.66,0-1.32,0-1.99v-2.01c0-.68,0-1.36,0-2.06v-2.12c0-.72,0-1.45,0-2.21s0-1.52,0-2.31v-2.42c0-.83,0-1.68,0-2.56Z" style="fill:#fff;"/><path d="M177.42,254.94h43.78c0,.84,0,1.58,0,2.26,0,.68,0,1.32,0,1.95,0,.63,0,1.26,0,1.95s0,1.42,0,2.26c-.69.5-1.36.99-2.01,1.46s-1.28.93-1.9,1.38c-.62.45-1.22.88-1.81,1.31-.59.42-1.17.84-1.73,1.25-.57.41-1.12.81-1.67,1.2-.55.39-1.08.78-1.62,1.16-.53.38-1.06.76-1.58,1.13s-1.04.75-1.56,1.12c-.52.37-1.03.74-1.55,1.11s-1.04.74-1.56,1.11c-.52.37-1.05.75-1.58,1.13-.53.38-1.07.76-1.62,1.15-.55.39-1.1.78-1.67,1.19-.57.4-1.14.81-1.73,1.23s-1.19.85-1.81,1.29c-.62.44-1.25.89-1.9,1.35s-1.32.94-2.01,1.43c.84,0,1.65.02,2.43.03.78,0,1.54.02,2.27.03.74,0,1.45.02,2.15.03.7,0,1.38.02,2.04.03.67,0,1.32.02,1.97.03.65,0,1.28.02,1.91.03.63,0,1.26.02,1.89.03s1.26.02,1.89.03c.63.01,1.27.02,1.91.03.65.01,1.3.02,1.97.04.67.01,1.35.02,2.04.04.7.01,1.41.03,2.15.04.74.01,1.49.03,2.27.05s1.59.03,2.43.05c0,.83,0,1.55,0,2.22s0,1.29,0,1.91c0,.62,0,1.24,0,1.91,0,.67,0,1.39,0,2.22-.88-.02-1.73-.05-2.56-.07-.83-.02-1.65-.04-2.45-.06-.8-.02-1.58-.04-2.34-.06s-1.51-.04-2.25-.05c-.74-.02-1.46-.03-2.17-.05-.71-.02-1.41-.03-2.1-.04-.69-.01-1.38-.03-2.05-.04-.68-.01-1.35-.03-2.01-.04-.67-.01-1.33-.02-1.99-.04-.66-.01-1.32-.02-1.97-.03-.66-.01-1.31-.02-1.97-.03-.66-.01-1.32-.02-1.99-.03-.67-.01-1.34-.02-2.01-.03s-1.36-.02-2.05-.03c-.69,0-1.39-.02-2.1-.03s-1.43-.02-2.17-.03c-.74,0-1.49-.02-2.25-.02-.76,0-1.54-.02-2.34-.02-.8,0-1.61-.01-2.45-.02-.83,0-1.69-.01-2.56-.02,0-.83,0-1.55,0-2.22s0-1.29,0-1.91c0-.62,0-1.24,0-1.91,0-.67,0-1.39,0-2.22.69-.49,1.36-.97,2.01-1.43.65-.46,1.29-.92,1.9-1.36.62-.44,1.22-.87,1.81-1.29.59-.42,1.17-.83,1.73-1.23.57-.4,1.12-.8,1.67-1.19.55-.39,1.08-.77,1.62-1.15s1.06-.75,1.58-1.13c.52-.37,1.04-.74,1.56-1.11.52-.37,1.03-.74,1.55-1.11s1.04-.74,1.56-1.11c.52-.37,1.05-.75,1.58-1.13.53-.38,1.07-.77,1.62-1.16.55-.39,1.1-.79,1.67-1.19.57-.41,1.14-.82,1.73-1.24.59-.42,1.19-.85,1.81-1.3.62-.44,1.25-.9,1.9-1.37.65-.47,1.32-.95,2.01-1.45-.84,0-1.64,0-2.43-.01s-1.54,0-2.27,0c-.73,0-1.45,0-2.14,0-.7,0-1.38,0-2.04,0s-1.32,0-1.97,0c-.65,0-1.28,0-1.91,0-.63,0-1.26,0-1.89,0-.63,0-1.26,0-1.89,0-.63,0-1.27,0-1.91,0-.65,0-1.3,0-1.97,0-.67,0-1.35,0-2.04,0s-1.41,0-2.14,0c-.73,0-1.49,0-2.27,0s-1.59,0-2.43,0c0-.81,0-1.52,0-2.18s0-1.27,0-1.87c0-.61,0-1.21,0-1.87,0-.66,0-1.37,0-2.18Z" style="fill:#fff;"/><path d="M265.34,254.94c.7,0,1.39.07,2.05.22s1.29.35,1.89.62c.6.27,1.16.59,1.67.97s.98.81,1.4,1.28c.41.47.77.99,1.07,1.54.3.55.53,1.14.68,1.75.16.61.24,1.25.24,1.9,0,.86,0,1.68,0,2.48s0,1.55,0,2.28,0,1.44,0,2.13c0,.69,0,1.36,0,2.03,0,.66,0,1.31,0,1.96,0,.65,0,1.29,0,1.94,0,.65,0,1.3,0,1.96,0,.66,0,1.34,0,2.03,0,.69,0,1.4,0,2.13,0,.73,0,1.49,0,2.28,0,.79,0,1.61,0,2.48,0,.76-.11,1.5-.32,2.19-.21.69-.52,1.34-.91,1.93-.39.59-.87,1.13-1.41,1.6s-1.16.87-1.82,1.2-1.39.57-2.14.72-1.56.22-2.38.18c-.86-.04-1.68-.08-2.48-.12s-1.56-.07-2.3-.11c-.74-.03-1.46-.07-2.15-.1-.7-.03-1.38-.06-2.05-.09-.67-.03-1.32-.06-1.98-.09-.65-.03-1.3-.06-1.94-.08-.64-.03-1.29-.05-1.94-.08s-1.31-.05-1.98-.08c-.67-.03-1.35-.05-2.05-.08-.7-.03-1.41-.06-2.15-.08s-1.5-.06-2.3-.09c-.79-.03-1.62-.06-2.48-.09-.71-.03-1.4-.12-2.07-.28-.66-.16-1.3-.38-1.9-.66-.6-.28-1.16-.61-1.67-.99-.51-.38-.98-.8-1.39-1.27-.41-.46-.77-.97-1.06-1.5-.29-.53-.52-1.1-.68-1.68-.16-.59-.24-1.2-.24-1.82,0-.82,0-1.61,0-2.36s0-1.48,0-2.18c0-.7,0-1.38,0-2.04,0-.66,0-1.3,0-1.93s0-1.25,0-1.87c0-.62,0-1.23,0-1.85,0-.62,0-1.24,0-1.87s0-1.27,0-1.93c0-.66,0-1.34,0-2.04,0-.7,0-1.42,0-2.18,0-.75,0-1.54,0-2.36,0-.73.11-1.43.32-2.1.21-.67.51-1.3.9-1.88.39-.58.86-1.12,1.4-1.6.54-.48,1.15-.89,1.82-1.23s1.39-.61,2.15-.8c.76-.18,1.57-.28,2.4-.28h25.78ZM240.02,285.27c.83.02,1.62.05,2.38.07.76.02,1.5.04,2.21.07.71.02,1.4.04,2.07.06s1.33.04,1.97.06c.64.02,1.28.04,1.9.06.63.02,1.25.04,1.87.06s1.24.04,1.87.06,1.26.04,1.9.07c.64.02,1.3.05,1.97.07.67.02,1.36.05,2.07.07.71.03,1.45.05,2.21.08s1.56.06,2.38.09c0-.82,0-1.6,0-2.35s0-1.47,0-2.17,0-1.37,0-2.03c0-.66,0-1.3,0-1.93,0-.63,0-1.25,0-1.87,0-.62,0-1.23,0-1.85,0-.62,0-1.24,0-1.87,0-.63,0-1.27,0-1.93s0-1.33,0-2.03c0-.7,0-1.42,0-2.17,0-.75,0-1.53,0-2.35-.83,0-1.62-.02-2.38-.02-.76,0-1.5-.02-2.21-.02-.71,0-1.4-.01-2.07-.02s-1.33-.01-1.97-.02c-.64,0-1.27-.01-1.9-.02s-1.25-.01-1.87-.02c-.62,0-1.24-.01-1.87-.02s-1.26-.01-1.9-.02c-.64,0-1.3-.01-1.97-.02-.67,0-1.36-.01-2.07-.02-.71,0-1.45-.01-2.21-.02-.76,0-1.56-.01-2.38-.02,0,.88,0,1.71,0,2.51,0,.8,0,1.56,0,2.3,0,.74,0,1.45,0,2.14s0,1.37,0,2.04,0,1.33,0,1.98,0,1.32,0,1.98c0,.67,0,1.34,0,2.04s0,1.4,0,2.14,0,1.5,0,2.3c0,.8,0,1.63,0,2.51Z" style="fill:#fff;"/><path d="M318.29,254.94h9.55v43.78c-.78-.06-1.48-.12-2.13-.17-.65-.05-1.26-.1-1.85-.14-.59-.05-1.17-.09-1.76-.13s-1.2-.09-1.85-.14-1.35-.1-2.13-.16c-.55-.68-1.08-1.34-1.6-1.98-.52-.64-1.02-1.26-1.52-1.87-.49-.61-.97-1.2-1.44-1.77-.47-.58-.93-1.14-1.38-1.69s-.9-1.09-1.33-1.62-.87-1.05-1.29-1.56-.85-1.02-1.26-1.52-.83-1-1.24-1.49c-.41-.49-.82-.98-1.23-1.47-.41-.49-.82-.98-1.23-1.47-.41-.49-.83-.98-1.24-1.47-.42-.49-.84-.99-1.26-1.49s-.86-1.01-1.29-1.52c-.44-.51-.88-1.03-1.33-1.56-.45-.53-.91-1.06-1.39-1.61-.47-.55-.95-1.11-1.45-1.68-.49-.57-1-1.15-1.52-1.75-.52-.6-1.05-1.21-1.6-1.83,0,.85,0,1.67,0,2.46,0,.79,0,1.56,0,2.3s0,1.46,0,2.16,0,1.38,0,2.05c0,.67,0,1.33,0,1.98s0,1.29,0,1.93c0,.64,0,1.28,0,1.92,0,.64,0,1.28,0,1.93,0,.65,0,1.31,0,1.98,0,.67,0,1.35,0,2.05,0,.7,0,1.42,0,2.16,0,.74,0,1.5,0,2.3,0,.79,0,1.61,0,2.46-.75-.05-1.43-.09-2.06-.13s-1.22-.07-1.79-.11c-.57-.03-1.13-.07-1.7-.1s-1.16-.07-1.79-.11c-.63-.04-1.31-.08-2.06-.12,0-.86,0-1.7,0-2.51s0-1.61,0-2.39c0-.78,0-1.54,0-2.28,0-.74,0-1.47,0-2.19,0-.72,0-1.42,0-2.11,0-.69,0-1.37,0-2.05,0-.67,0-1.34,0-2,0-.66,0-1.31,0-1.96,0-.65,0-1.3,0-1.94,0-.64,0-1.29,0-1.93,0-.64,0-1.29,0-1.94,0-.65,0-1.3,0-1.96,0-.66,0-1.32,0-2,0-.67,0-1.35,0-2.05,0-.69,0-1.4,0-2.11,0-.72,0-1.45,0-2.19,0-.74,0-1.5,0-2.28s0-1.57,0-2.39c0-.82,0-1.65,0-2.51h9.73c.58.65,1.14,1.28,1.68,1.9.55.62,1.08,1.22,1.59,1.8.52.59,1.02,1.16,1.51,1.72.49.56.98,1.11,1.45,1.66s.94,1.08,1.39,1.6c.46.53.91,1.05,1.35,1.56.45.52.89,1.03,1.32,1.53.44.51.87,1.01,1.3,1.52s.87,1.01,1.3,1.52c.43.51.87,1.02,1.3,1.53.44.51.88,1.03,1.32,1.56.44.53.9,1.06,1.35,1.6s.92,1.1,1.39,1.66c.47.56.95,1.14,1.45,1.73.49.59,1,1.2,1.51,1.82.52.62,1.05,1.26,1.59,1.92.54.66,1.1,1.34,1.68,2.05,0-.88,0-1.73,0-2.55s0-1.61,0-2.38c0-.77,0-1.51,0-2.24,0-.73,0-1.43,0-2.13,0-.69,0-1.38,0-2.05,0-.67,0-1.34,0-2,0-.66,0-1.32,0-1.99s0-1.33,0-2c0-.67,0-1.36,0-2.05,0-.7,0-1.4,0-2.13,0-.73,0-1.47,0-2.24,0-.77,0-1.56,0-2.38s0-1.67,0-2.55Z" style="fill:#fff;"/></g><g id="txt_-_innovation_team"><path d="M0,312.62h3.31v23.1H0v-23.1Z" style="fill:#fff;"/><path d="M29.16,312.62h3.14v23.1h-2.84l-15.45-17.79v17.79h-3.11v-23.1h2.68l15.58,17.94v-17.94Z" style="fill:#fff;"/><path d="M57.97,312.62h3.14v23.1h-2.84l-15.45-17.79v17.79h-3.11v-23.1h2.68l15.58,17.94v-17.94Z" style="fill:#fff;"/><path d="M79.77,312.29c3.57,0,6.54,1.13,8.92,3.39,2.37,2.26,3.56,5.09,3.56,8.5s-1.2,6.23-3.59,8.46c-2.4,2.23-5.42,3.35-9.06,3.35s-6.38-1.12-8.7-3.35c-2.32-2.23-3.48-5.03-3.48-8.39s1.17-6.31,3.5-8.57c2.34-2.26,5.29-3.39,8.86-3.39ZM79.9,315.43c-2.64,0-4.82.83-6.52,2.48s-2.55,3.76-2.55,6.33.85,4.56,2.56,6.22c1.71,1.65,3.84,2.48,6.41,2.48s4.73-.84,6.45-2.53c1.72-1.69,2.59-3.79,2.59-6.3s-.86-4.51-2.59-6.18c-1.72-1.67-3.84-2.51-6.35-2.51Z" style="fill:#fff;"/><path d="M111.96,312.62h3.29l-9.77,23.2h-.75l-9.96-23.2h3.33l6.95,16.22,6.9-16.22Z" style="fill:#fff;"/><path d="M124.82,312.49h2.32l10.36,23.23h-3.39l-3.08-6.85h-9.86l-2.89,6.85h-3.4l9.92-23.23ZM129.68,325.93l-3.73-8.37-3.46,8.37h7.18Z" style="fill:#fff;"/><path d="M137.04,312.59h19.3v2.94h-8.05v20.19h-3.32v-20.19h-7.92v-2.94Z" style="fill:#fff;"/><path d="M161.87,312.62h3.31v23.1h-3.31v-23.1Z" style="fill:#fff;"/><path d="M184.01,312.29c3.57,0,6.54,1.13,8.92,3.39,2.37,2.26,3.56,5.09,3.56,8.5s-1.2,6.23-3.59,8.46c-2.4,2.23-5.42,3.35-9.06,3.35s-6.38-1.12-8.7-3.35c-2.32-2.23-3.48-5.03-3.48-8.39s1.17-6.31,3.5-8.57,5.29-3.39,8.86-3.39ZM184.14,315.43c-2.64,0-4.82.83-6.52,2.48s-2.55,3.76-2.55,6.33.85,4.56,2.56,6.22,3.84,2.48,6.41,2.48,4.73-.84,6.45-2.53c1.72-1.69,2.59-3.79,2.59-6.3s-.86-4.51-2.59-6.18-3.84-2.51-6.35-2.51Z" style="fill:#fff;"/><path d="M221.28,312.62h3.14v23.1h-2.84l-15.45-17.79v17.79h-3.11v-23.1h2.68l15.58,17.94v-17.94Z" style="fill:#fff;"/><path d="M237.32,312.59h19.3v2.94h-8.05v20.19h-3.32v-20.19h-7.92v-2.94Z" style="fill:#fff;"/><path d="M262.11,312.62h13.1v2.94h-9.79v7.04h9.46v2.96h-9.46v7.18h10.1v2.94h-13.41v-23.07Z" style="fill:#fff;"/><path d="M288.79,312.49h2.32l10.36,23.23h-3.38l-3.08-6.85h-9.86l-2.89,6.85h-3.4l9.92-23.23ZM293.65,325.93l-3.73-8.37-3.46,8.37h7.18Z" style="fill:#fff;"/><path d="M324.75,312.62h3.09v23.1h-3.32v-17.98l-7.1,8.93h-.61l-7.19-8.93v17.98h-3.31v-23.1h3.13l7.68,9.49,7.63-9.49Z" style="fill:#fff;"/></g></g></g></svg>