<?xml version="1.0" encoding="UTF-8"?><svg id="Layer_2" xmlns="http://www.w3.org/2000/svg" viewBox="0 0 536.66 132.67"><g id="Exports"><g id="logo_-_wordmark"><g id="txt_-_horizon"><path d="M73.15,0c0,1.4,0,2.77,0,4.11,0,1.33,0,2.64,0,3.91,0,1.27,0,2.51,0,3.73,0,1.22,0,2.41,0,3.58,0,1.17,0,2.32,0,3.45,0,1.13,0,2.25,0,3.35s0,2.19,0,3.27c0,1.08,0,2.14,0,3.21,0,1.06,0,2.12,0,3.17,0,1.05,0,2.11,0,3.16,0,1.05,0,2.11,0,3.17,0,1.06,0,2.13,0,3.21,0,1.08,0,2.16,0,3.27,0,1.1,0,2.22,0,3.35,0,1.13,0,2.28,0,3.45,0,1.17,0,2.36,0,3.58,0,1.22,0,2.46,0,3.73,0,1.27,0,2.57,0,3.91s0,2.7,0,4.11c-1.23.07-2.34.13-3.38.2s-2,.12-2.94.17c-.94.06-1.85.11-2.79.17-.94.06-1.9.11-2.94.18-1.04.06-2.15.13-3.38.21,0-1.32,0-2.57,0-3.74,0-1.18,0-2.3,0-3.37,0-1.08,0-2.11,0-3.12,0-1.01,0-2.01,0-3,0-.99,0-1.99,0-3,0-1.01,0-2.05,0-3.12,0-1.08,0-2.19,0-3.37,0-1.18,0-2.42,0-3.74-1.41.05-2.76.1-4.06.15-1.3.05-2.55.1-3.77.15s-2.39.09-3.53.14c-1.14.05-2.26.09-3.36.13-1.1.04-2.17.09-3.24.13s-2.12.09-3.18.13c-1.06.04-2.11.09-3.18.13-1.07.04-2.14.09-3.24.14s-2.21.09-3.36.14c-1.14.05-2.32.1-3.53.15-1.21.05-2.47.11-3.77.17-1.3.06-2.65.12-4.06.18,0,1.38,0,2.67,0,3.9,0,1.23,0,2.39,0,3.52s0,2.2,0,3.26c0,1.06,0,2.09,0,3.13,0,1.04,0,2.07,0,3.13,0,1.06,0,2.14,0,3.26s0,2.29,0,3.52,0,2.52,0,3.9c-1.23.09-2.34.17-3.38.25s-2,.15-2.93.22c-.94.07-1.85.14-2.79.21s-1.9.15-2.93.23c-1.04.08-2.14.17-3.38.26v-12.03c0-1.25,0-2.48,0-3.68V15.71c0-1.2,0-2.43,0-3.68V0h15.43c0,1.38,0,2.67,0,3.9s0,2.39,0,3.52,0,2.2,0,3.26,0,2.09,0,3.13c0,1.04,0,2.07,0,3.13s0,2.14,0,3.26c0,1.12,0,2.29,0,3.52,0,1.23,0,2.52,0,3.9,1.41-.04,2.76-.08,4.06-.12,1.3-.04,2.55-.07,3.77-.11,1.21-.03,2.39-.07,3.53-.1,1.15-.03,2.26-.06,3.36-.09,1.1-.03,2.17-.06,3.24-.09,1.07-.03,2.12-.06,3.18-.09s2.11-.06,3.18-.08c1.07-.03,2.14-.06,3.24-.08,1.1-.03,2.21-.06,3.36-.09s2.32-.06,3.53-.09c1.21-.03,2.47-.06,3.77-.09,1.3-.03,2.65-.07,4.06-.1,0-1.32,0-2.57,0-3.74,0-1.18,0-2.3,0-3.37s0-2.11,0-3.12c0-1.01,0-2.01,0-3,0-.99,0-1.99,0-3,0-1.01,0-2.05,0-3.12,0-1.08,0-2.19,0-3.37,0-1.18,0-2.42,0-3.74h15.43Z" style="fill:#fff;"/><path d="M146.31,0c1.34,0,2.65.16,3.89.46,1.24.3,2.42.74,3.51,1.3,1.09.56,2.09,1.24,2.98,2.02s1.67,1.65,2.31,2.61c.64.96,1.15,1.99,1.49,3.08.35,1.09.53,2.25.53,3.44,0,1.34,0,2.63,0,3.86,0,1.23,0,2.42,0,3.56,0,1.14,0,2.25,0,3.33,0,1.08,0,2.13,0,3.16,0,1.03,0,2.05,0,3.06,0,1.01,0,2.02,0,3.03,0,1.01,0,2.03,0,3.06,0,1.03,0,2.08,0,3.16,0,1.08,0,2.18,0,3.33,0,1.14,0,2.33,0,3.56,0,1.23,0,2.52,0,3.86,0,1.02-.14,2.02-.4,2.98-.26.96-.64,1.88-1.12,2.75-.48.87-1.07,1.69-1.75,2.45-.68.76-1.45,1.45-2.29,2.07-.84.62-1.76,1.16-2.74,1.61-.98.45-2.01.82-3.09,1.08-1.08.26-2.2.42-3.36.46-1.41.05-2.76.1-4.05.15-1.3.05-2.55.09-3.76.14-1.21.05-2.38.09-3.53.14-1.14.04-2.26.09-3.35.13-1.09.04-2.17.09-3.23.13-1.06.04-2.12.09-3.18.13s-2.11.09-3.18.13c-1.06.05-2.14.09-3.23.14-1.09.05-2.21.1-3.35.15-1.14.05-2.32.1-3.53.16-1.21.06-2.46.11-3.76.17-1.3.06-2.65.12-4.05.19-1.36.07-2.68-.04-3.92-.29s-2.43-.65-3.52-1.18c-1.09-.53-2.09-1.19-2.98-1.96-.89-.77-1.66-1.65-2.3-2.62-.64-.97-1.14-2.03-1.48-3.16-.34-1.13-.52-2.33-.52-3.58,0-1.41,0-2.75,0-4.05,0-1.29,0-2.53,0-3.73,0-1.2,0-2.36,0-3.49,0-1.13,0-2.23,0-3.31,0-1.08,0-2.15,0-3.21,0-1.06,0-2.11,0-3.17s0-2.13,0-3.21c0-1.08,0-2.18,0-3.31,0-1.13,0-2.29,0-3.49,0-1.2,0-2.44,0-3.73,0-1.29,0-2.64,0-4.05,0-1.07.14-2.11.39-3.11.25-1,.63-1.96,1.11-2.86.48-.9,1.06-1.74,1.74-2.51.67-.77,1.44-1.47,2.28-2.09.84-.62,1.76-1.15,2.74-1.59.98-.44,2.02-.78,3.1-1.01,1.09-.23,2.22-.35,3.39-.35h42.2ZM104.74,50.94c1.35-.05,2.65-.1,3.9-.14,1.25-.05,2.45-.09,3.62-.13,1.17-.04,2.29-.08,3.39-.12,1.1-.04,2.17-.08,3.22-.11,1.05-.04,2.09-.07,3.11-.11,1.02-.03,2.04-.07,3.06-.1s2.03-.07,3.06-.1c1.02-.03,2.06-.07,3.11-.1,1.05-.03,2.12-.07,3.22-.1,1.1-.03,2.23-.07,3.39-.1,1.17-.03,2.37-.07,3.62-.11,1.25-.04,2.55-.07,3.9-.11,0-1.44,0-2.8,0-4.11,0-1.31,0-2.55,0-3.76,0-1.21,0-2.37,0-3.5,0-1.13,0-2.24,0-3.33,0-1.09,0-2.17,0-3.24,0-1.08,0-2.15,0-3.24,0-1.09,0-2.2,0-3.33,0-1.13,0-2.3,0-3.5s0-2.45,0-3.76c0-1.31,0-2.67,0-4.11-1.35.01-2.65.02-3.9.03-1.25.01-2.45.02-3.62.03-1.17,0-2.29.02-3.39.03-1.1,0-2.17.02-3.22.03-1.05,0-2.09.02-3.11.03-1.02,0-2.04.02-3.06.03-1.02,0-2.03.02-3.05.03s-2.06.02-3.11.03-2.12.02-3.22.03c-1.1.01-2.23.02-3.39.03-1.17.01-2.37.02-3.62.04-1.25.01-2.55.03-3.9.04,0,1.34,0,2.62,0,3.85,0,1.23,0,2.41,0,3.55s0,2.24,0,3.32c0,1.07,0,2.12,0,3.15,0,1.03,0,2.04,0,3.05,0,1.01,0,2.01,0,3.02,0,1.01,0,2.02,0,3.05,0,1.03,0,2.08,0,3.15,0,1.07,0,2.18,0,3.32,0,1.14,0,2.32,0,3.55,0,1.23,0,2.51,0,3.85Z" style="fill:#fff;"/><path d="M248.52,28.46c0,1.15-.19,2.26-.53,3.32s-.86,2.07-1.5,3c-.65.93-1.43,1.79-2.33,2.56s-1.91,1.44-3.01,1.99c-1.1.56-2.29,1-3.54,1.3-1.25.3-2.57.47-3.93.48-.28,0-.42,0-.7,0,.73.72,1.46,1.46,2.2,2.19.74.74,1.48,1.48,2.23,2.22.75.74,1.5,1.49,2.25,2.24.75.75,1.5,1.5,2.25,2.24.75.75,1.49,1.5,2.24,2.24.74.74,1.48,1.48,2.21,2.22.73.74,1.45,1.47,2.16,2.19,0,.9,0,1.58,0,2.25,0,.68,0,1.35,0,2.25-1.27,0-2.42.01-3.49.02-1.07,0-2.07.01-3.03.02s-1.91.02-2.88.02c-.97,0-1.96.02-3.03.03-1.07,0-2.22.02-3.49.03-.99-1-1.92-1.93-2.8-2.82-.88-.89-1.72-1.73-2.52-2.54-.8-.81-1.58-1.59-2.34-2.36-.76-.77-1.5-1.51-2.24-2.26-.74-.75-1.49-1.5-2.24-2.27-.76-.77-1.53-1.55-2.34-2.36-.8-.81-1.64-1.66-2.52-2.55-.88-.89-1.81-1.83-2.8-2.83-1.37.02-2.62.04-3.8.06-1.18.02-2.28.04-3.34.05-1.06.02-2.09.03-3.11.05-1.03.02-2.05.04-3.11.05-1.06.02-2.17.04-3.34.06-1.18.02-2.43.05-3.8.07.2,0,.3.17.3.51,0,0-.2,0-.3-.08,0,1.33,0,2.54,0,3.68,0,1.14,0,2.21,0,3.24,0,1.03,0,2.02,0,3.02,0,.99,0,1.99,0,3.02,0,1.03,0,2.1,0,3.24,0,1.14,0,2.36,0,3.68-1.23.03-2.35.05-3.38.08-1.04.02-2,.05-2.94.07s-1.85.04-2.79.07c-.94.02-1.9.05-2.94.07-1.04.03-2.15.06-3.38.09,0-1.38,0-2.73,0-4.04,0-1.31,0-2.59,0-3.83,0-1.25,0-2.46,0-3.65,0-1.19,0-2.36,0-3.5,0-1.14,0-2.27,0-3.37,0-1.11,0-2.19,0-3.27,0-1.08,0-2.14,0-3.19,0-1.05,0-2.1,0-3.14,0-1.04,0-2.08,0-3.12,0-1.04,0-2.08,0-3.12,0-1.04,0-2.09,0-3.14,0-1.05,0-2.12,0-3.19,0-1.08,0-2.16,0-3.27,0-1.11,0-2.23,0-3.37,0-1.14,0-2.31,0-3.5,0-1.19,0-2.41,0-3.65,0-1.25,0-2.52,0-3.83,0-1.31,0-2.66,0-4.04,1.42,0,2.8,0,4.14,0h3.9c1.27,0,2.5,0,3.7,0h10.24c1.09,0,2.16,0,3.24,0h9.64c1.09,0,2.19,0,3.3,0h14.54c1.34,0,2.71,0,4.13,0,1.36,0,2.68.16,3.93.45,1.25.3,2.44.73,3.54,1.28,1.1.55,2.11,1.22,3,1.98.9.76,1.68,1.62,2.32,2.55.64.93,1.15,1.94,1.5,3s.53,2.17.53,3.32c0,1.26,0,2.4,0,3.46,0,1.06,0,2.05,0,3.01,0,.96,0,1.9,0,2.86,0,.96,0,1.95,0,3.01,0,1.06,0,2.2,0,3.46ZM192.27,28.14c1.35-.01,2.65-.03,3.9-.04,1.25-.01,2.45-.02,3.62-.03,1.17-.01,2.29-.02,3.39-.03,1.1,0,2.17-.02,3.23-.03,1.05,0,2.09-.02,3.11-.02,1.02,0,2.04-.02,3.06-.02,1.02,0,2.03-.01,3.06-.02,1.02,0,2.06-.01,3.11-.02,1.05,0,2.12-.01,3.23-.02,1.1,0,2.23-.01,3.39-.02,1.17,0,2.37-.01,3.62-.02s2.55-.01,3.9-.02c0-1.46,0-2.73,0-3.91s0-2.27,0-3.37,0-2.18,0-3.37c0-1.18,0-2.46,0-3.91-1.35,0-2.65,0-3.9,0s-2.45,0-3.62,0c-1.17,0-2.29,0-3.39,0-1.1,0-2.17,0-3.22,0-1.05,0-2.09,0-3.11,0-1.02,0-2.04,0-3.06.01s-2.03,0-3.06.01-2.06,0-3.11.01c-1.05,0-2.12,0-3.22.01-1.1,0-2.23,0-3.39.01s-2.37.01-3.62.02c-1.25,0-2.55.01-3.9.02,0,1.18,0,2.24,0,3.23s0,1.91,0,2.8c0,.89,0,1.77,0,2.66,0,.89,0,1.81,0,2.8,0,.99,0,2.05,0,3.23Z" style="fill:#fff;"/><path d="M264.15,0h15.53c0,1.44,0,2.83,0,4.19,0,1.36,0,2.68,0,3.97,0,1.29,0,2.55,0,3.78,0,1.23,0,2.43,0,3.61,0,1.18,0,2.34,0,3.48,0,1.14,0,2.26,0,3.37,0,1.11,0,2.21,0,3.3,0,1.09,0,2.17,0,3.25,0,1.08,0,2.16,0,3.24,0,1.08,0,2.16,0,3.25,0,1.09,0,2.19,0,3.3,0,1.11,0,2.23,0,3.37,0,1.14,0,2.3,0,3.48,0,1.18,0,2.38,0,3.61,0,1.23,0,2.49,0,3.78,0,1.29,0,2.61,0,3.97,0,1.36,0,2.76,0,4.19-1.24,0-2.36,0-3.41,0-1.04,0-2.01,0-2.96,0-.94,0-1.86,0-2.81,0-.94,0-1.91,0-2.96,0-1.04,0-2.16,0-3.41,0,0-1.44,0-2.83,0-4.19s0-2.68,0-3.97v-3.77c0-1.23,0-2.43,0-3.61s0-2.34,0-3.48v-6.67c0-1.09,0-2.17,0-3.25v-3.24c0-1.08,0-2.16,0-3.25v-3.3c0-1.11,0-2.23,0-3.37v-3.48c0-1.18,0-2.38,0-3.61s0-2.49,0-3.77v-3.97c0-1.36,0-2.75,0-4.19Z" style="fill:#fff;"/><path d="M290.42,0h71.66c0,1.38,0,2.58,0,3.7,0,1.12,0,2.15,0,3.19,0,1.03,0,2.07,0,3.19s0,2.33,0,3.7c-1.13.82-2.22,1.61-3.29,2.38s-2.1,1.52-3.11,2.25c-1.01.73-2,1.44-2.96,2.14-.96.7-1.91,1.37-2.83,2.04-.93.67-1.83,1.32-2.73,1.96-.89.64-1.77,1.27-2.65,1.9-.87.62-1.73,1.24-2.59,1.85s-1.7,1.22-2.55,1.83c-.85.61-1.69,1.21-2.54,1.82-.85.61-1.7,1.21-2.55,1.82-.86.61-1.72,1.22-2.59,1.85-.87.62-1.75,1.25-2.65,1.89-.89.64-1.8,1.28-2.73,1.94-.93.66-1.87,1.33-2.83,2.02s-1.95,1.39-2.96,2.11c-1.01.72-2.05,1.46-3.12,2.21-1.07.76-2.16,1.53-3.29,2.34,1.37.01,2.69.03,3.97.04,1.28.01,2.52.03,3.72.04,1.2.01,2.37.03,3.51.04,1.14.01,2.25.03,3.34.04,1.09.01,2.16.03,3.22.05,1.06.02,2.1.03,3.13.05,1.04.02,2.06.03,3.09.05,1.03.02,2.06.03,3.09.05,1.04.02,2.08.03,3.13.05,1.06.02,2.13.04,3.22.06,1.09.02,2.2.04,3.34.06,1.14.02,2.31.04,3.51.07,1.2.02,2.44.05,3.72.08s2.6.05,3.97.08c0,1.35,0,2.53,0,3.63s0,2.11,0,3.13c0,1.01,0,2.03,0,3.13,0,1.1,0,2.28,0,3.63-1.43-.04-2.83-.08-4.2-.11-1.37-.04-2.7-.07-4-.1-1.3-.03-2.58-.06-3.83-.09s-2.48-.06-3.68-.09c-1.2-.03-2.39-.05-3.55-.08-1.16-.03-2.31-.05-3.45-.07-1.13-.02-2.25-.05-3.36-.07-1.11-.02-2.21-.04-3.29-.06-1.09-.02-2.17-.04-3.25-.06-1.08-.02-2.15-.04-3.23-.06-1.08-.02-2.15-.04-3.23-.05-1.08-.02-2.16-.03-3.25-.05-1.09-.02-2.19-.03-3.3-.05-1.11-.02-2.23-.03-3.36-.05-1.13-.01-2.28-.03-3.45-.04-1.17-.01-2.35-.03-3.55-.04-1.2-.01-2.43-.03-3.68-.04-1.25-.01-2.53-.02-3.83-.04-1.31-.01-2.64-.02-4.01-.03-1.37-.01-2.76-.02-4.2-.03,0-1.35,0-2.53,0-3.63s0-2.11,0-3.12c0-1.01,0-2.03,0-3.13,0-1.1,0-2.28,0-3.63,1.13-.8,2.23-1.58,3.29-2.34,1.07-.76,2.1-1.5,3.12-2.22,1.01-.72,2-1.42,2.96-2.11.96-.69,1.91-1.36,2.83-2.02.93-.66,1.83-1.31,2.73-1.94.89-.64,1.78-1.26,2.65-1.89s1.73-1.23,2.59-1.84c.86-.61,1.7-1.22,2.55-1.82.85-.6,1.69-1.21,2.54-1.81s1.7-1.21,2.55-1.82c.86-.61,1.72-1.23,2.59-1.85.87-.62,1.75-1.25,2.65-1.89.89-.64,1.8-1.29,2.73-1.95.93-.66,1.87-1.34,2.83-2.03.96-.69,1.95-1.4,2.96-2.13,1.01-.73,2.05-1.47,3.11-2.24,1.07-.77,2.16-1.56,3.29-2.37-1.37,0-2.69-.01-3.97-.02s-2.52-.01-3.72-.01c-1.2,0-2.37,0-3.51-.01-1.14,0-2.25,0-3.34-.01s-2.16,0-3.22-.01c-1.06,0-2.1,0-3.13,0-1.04,0-2.06,0-3.09,0-1.03,0-2.06,0-3.09,0-1.04,0-2.08,0-3.13,0-1.06,0-2.13,0-3.22,0-1.09,0-2.2,0-3.34,0s-2.31,0-3.51,0c-1.2,0-2.44,0-3.72,0-1.28,0-2.6,0-3.97,0,0-1.33,0-2.49,0-3.56s0-2.07,0-3.07c0-.99,0-1.99,0-3.07,0-1.08,0-2.24,0-3.56Z" style="fill:#fff;"/><path d="M434.34,0c1.15,0,2.27.12,3.35.35s2.12.57,3.09,1.01c.98.44,1.89.97,2.74,1.59s1.61,1.32,2.29,2.1c.68.77,1.27,1.62,1.75,2.52.48.9.86,1.86,1.12,2.86.26,1,.4,2.04.4,3.12,0,1.41,0,2.76,0,4.05,0,1.29,0,2.54,0,3.74,0,1.2,0,2.36,0,3.49,0,1.13,0,2.23,0,3.32,0,1.08,0,2.15,0,3.21,0,1.06,0,2.12,0,3.18,0,1.06,0,2.13,0,3.21,0,1.08,0,2.19,0,3.32,0,1.13,0,2.29,0,3.49,0,1.2,0,2.44,0,3.74,0,1.29,0,2.64,0,4.05,0,1.25-.18,2.45-.53,3.59-.34,1.13-.85,2.19-1.49,3.17-.64.97-1.42,1.85-2.31,2.62-.89.77-1.89,1.43-2.98,1.96-1.09.53-2.27.93-3.51,1.18s-2.55.35-3.89.29c-1.41-.07-2.75-.13-4.05-.19s-2.55-.12-3.76-.18c-1.21-.06-2.38-.11-3.53-.16-1.14-.05-2.26-.1-3.35-.15-1.09-.05-2.17-.1-3.23-.14-1.06-.05-2.12-.09-3.17-.14-1.06-.04-2.11-.09-3.18-.13-1.06-.04-2.14-.09-3.23-.13-1.09-.04-2.21-.09-3.35-.13-1.14-.05-2.32-.09-3.53-.14s-2.46-.09-3.76-.14c-1.3-.05-2.65-.1-4.06-.15-1.17-.04-2.3-.2-3.39-.46-1.09-.26-2.13-.63-3.11-1.08-.98-.45-1.9-1-2.74-1.62-.84-.62-1.61-1.32-2.28-2.07-.67-.76-1.26-1.58-1.74-2.45-.48-.87-.85-1.79-1.11-2.75-.25-.96-.39-1.96-.39-2.98,0-1.35,0-2.63,0-3.87,0-1.23,0-2.42,0-3.57,0-1.15,0-2.25,0-3.33,0-1.08,0-2.13,0-3.16s0-2.05,0-3.06c0-1.01,0-2.02,0-3.03,0-1.01,0-2.03,0-3.06s0-2.09,0-3.16c0-1.08,0-2.19,0-3.33,0-1.15,0-2.33,0-3.57,0-1.24,0-2.52,0-3.87,0-1.19.18-2.35.52-3.44.34-1.09.84-2.13,1.48-3.08.64-.96,1.41-1.83,2.3-2.61.89-.78,1.89-1.46,2.98-2.02s2.27-1,3.52-1.3c1.25-.3,2.56-.46,3.92-.46h42.2ZM392.9,49.65c1.35.04,2.65.08,3.9.11,1.25.04,2.45.07,3.62.11,1.17.04,2.29.07,3.39.1s2.17.07,3.22.1c1.05.03,2.09.07,3.11.1,1.02.03,2.04.07,3.06.1s2.03.07,3.05.1,2.06.07,3.11.11c1.05.04,2.12.07,3.22.11,1.1.04,2.23.08,3.39.12,1.17.04,2.37.09,3.62.13,1.25.05,2.55.09,3.9.15,0-1.34,0-2.62,0-3.85,0-1.23,0-2.41,0-3.55,0-1.14,0-2.25,0-3.32,0-1.08,0-2.12,0-3.15,0-1.03,0-2.05,0-3.05,0-1.01,0-2.01,0-3.02,0-1.01,0-2.02,0-3.05,0-1.03,0-2.08,0-3.15s0-2.18,0-3.32c0-1.14,0-2.32,0-3.55,0-1.23,0-2.51,0-3.85-1.35-.01-2.65-.03-3.9-.04-1.25-.01-2.45-.02-3.62-.04-1.17-.01-2.29-.02-3.39-.03-1.1-.01-2.17-.02-3.22-.03-1.05-.01-2.09-.02-3.11-.03s-2.04-.02-3.05-.03c-1.02,0-2.03-.02-3.06-.03-1.02,0-2.06-.02-3.11-.03-1.05,0-2.12-.02-3.22-.03-1.1,0-2.23-.02-3.39-.03-1.17,0-2.37-.02-3.62-.03-1.25-.01-2.55-.02-3.9-.03,0,1.44,0,2.8,0,4.11,0,1.31,0,2.56,0,3.76,0,1.21,0,2.37,0,3.51,0,1.13,0,2.24,0,3.33,0,1.09,0,2.17,0,3.25,0,1.08,0,2.15,0,3.25,0,1.09,0,2.2,0,3.33,0,1.13,0,2.3,0,3.51s0,2.46,0,3.76c0,1.31,0,2.67,0,4.11Z" style="fill:#fff;"/><path d="M521.03,0h15.63v71.66c-1.27-.1-2.42-.19-3.49-.27-1.07-.08-2.06-.16-3.03-.23-.97-.07-1.91-.15-2.88-.22s-1.96-.15-3.03-.23c-1.07-.08-2.21-.17-3.49-.26-.89-1.11-1.76-2.19-2.61-3.24-.85-1.05-1.67-2.07-2.48-3.06-.81-.99-1.59-1.96-2.37-2.9-.77-.94-1.53-1.87-2.27-2.77-.74-.9-1.47-1.79-2.18-2.65s-1.42-1.72-2.12-2.56c-.7-.84-1.38-1.67-2.07-2.49s-1.36-1.63-2.03-2.44c-.67-.81-1.35-1.61-2.02-2.41-.67-.8-1.34-1.6-2.02-2.4-.67-.8-1.35-1.6-2.03-2.41-.68-.81-1.37-1.62-2.07-2.44s-1.4-1.65-2.12-2.49c-.72-.84-1.44-1.69-2.18-2.55-.74-.86-1.5-1.74-2.27-2.64-.77-.9-1.56-1.81-2.37-2.74-.81-.93-1.63-1.89-2.48-2.86-.85-.98-1.72-1.98-2.62-3,0,1.39,0,2.74,0,4.03,0,1.3,0,2.55,0,3.76,0,1.21,0,2.39,0,3.54s0,2.27,0,3.36c0,1.1,0,2.17,0,3.24s0,2.12,0,3.16c0,1.05,0,2.09,0,3.14,0,1.05,0,2.1,0,3.16,0,1.06,0,2.14,0,3.24,0,1.1,0,2.22,0,3.36,0,1.15,0,2.32,0,3.54,0,1.21,0,2.46,0,3.76,0,1.3,0,2.64,0,4.03-1.23-.08-2.34-.14-3.38-.21s-2-.12-2.94-.18c-.94-.06-1.85-.11-2.79-.17s-1.9-.11-2.94-.17c-1.04-.06-2.15-.13-3.38-.2,0-1.41,0-2.77,0-4.11s0-2.64,0-3.91c0-1.27,0-2.52,0-3.74,0-1.22,0-2.41,0-3.58,0-1.17,0-2.32,0-3.46,0-1.13,0-2.25,0-3.35,0-1.1,0-2.19,0-3.27,0-1.08,0-2.15,0-3.21,0-1.06,0-2.12,0-3.18,0-1.06,0-2.11,0-3.16,0-1.06,0-2.11,0-3.18,0-1.06,0-2.13,0-3.21,0-1.08,0-2.17,0-3.27,0-1.1,0-2.22,0-3.35,0-1.13,0-2.28,0-3.46,0-1.17,0-2.37,0-3.58,0-1.22,0-2.46,0-3.74s0-2.58,0-3.91c0-1.34,0-2.7,0-4.11h15.92c.94,1.06,1.86,2.1,2.75,3.11.89,1.01,1.76,1.99,2.61,2.95.85.96,1.67,1.9,2.48,2.82.81.92,1.6,1.82,2.37,2.71s1.53,1.76,2.28,2.62c.75.86,1.49,1.71,2.21,2.56.73.84,1.45,1.68,2.16,2.51.72.83,1.43,1.66,2.14,2.49s1.42,1.65,2.13,2.49c.71.83,1.42,1.67,2.14,2.51.72.84,1.44,1.69,2.16,2.55.73.86,1.47,1.74,2.21,2.62.75.89,1.51,1.79,2.28,2.72.77.92,1.56,1.87,2.37,2.84.81.97,1.63,1.96,2.48,2.98.85,1.02,1.71,2.07,2.6,3.15.89,1.08,1.81,2.2,2.75,3.35,0-1.45,0-2.84,0-4.18,0-1.34,0-2.64,0-3.9,0-1.26,0-2.48,0-3.67,0-1.19,0-2.35,0-3.49,0-1.14,0-2.25,0-3.36,0-1.1,0-2.19,0-3.28,0-1.09,0-2.17,0-3.25,0-1.09,0-2.18,0-3.28,0-1.1,0-2.22,0-3.36,0-1.14,0-2.3,0-3.49,0-1.19,0-2.41,0-3.66,0-1.26,0-2.55,0-3.9s0-2.73,0-4.18Z" style="fill:#fff;"/></g><g id="txt_-_innovation_team"><path d="M0,94.42h5.41v37.82H0v-37.82Z" style="fill:#fff;"/><path d="M47.73,94.42h5.14v37.82h-4.66l-25.28-29.12v29.12h-5.09v-37.82h4.38l25.5,29.37v-29.37Z" style="fill:#fff;"/><path d="M94.9,94.42h5.14v37.82h-4.66l-25.28-29.12v29.12h-5.09v-37.82h4.39l25.5,29.37v-29.37Z" style="fill:#fff;"/><path d="M130.57,93.88c5.84,0,10.71,1.85,14.59,5.55,3.89,3.7,5.83,8.34,5.83,13.91s-1.96,10.19-5.88,13.85c-3.92,3.65-8.87,5.48-14.84,5.48s-10.45-1.83-14.24-5.48c-3.8-3.65-5.69-8.23-5.69-13.74s1.91-10.32,5.74-14.02c3.82-3.7,8.66-5.55,14.5-5.55ZM130.79,99.03c-4.33,0-7.88,1.35-10.67,4.06s-4.18,6.16-4.18,10.37,1.4,7.47,4.19,10.18c2.79,2.71,6.29,4.06,10.49,4.06s7.74-1.38,10.56-4.14c2.82-2.76,4.23-6.2,4.23-10.31s-1.41-7.38-4.23-10.11c-2.82-2.73-6.29-4.1-10.4-4.1Z" style="fill:#fff;"/><path d="M183.27,94.42h5.39l-15.99,37.98h-1.23l-16.3-37.98h5.45l11.37,26.56,11.3-26.56Z" style="fill:#fff;"/><path d="M204.32,94.21h3.8l16.96,38.03h-5.54l-5.04-11.21h-16.13l-4.73,11.21h-5.56l16.24-38.03ZM212.27,116.22l-6.1-13.7-5.66,13.7h11.76Z" style="fill:#fff;"/><path d="M224.33,94.37h31.59v4.82h-13.18v33.05h-5.44v-33.05h-12.97v-4.82Z" style="fill:#fff;"/><path d="M264.97,94.42h5.41v37.82h-5.41v-37.82Z" style="fill:#fff;"/><path d="M301.22,93.88c5.84,0,10.71,1.85,14.59,5.55,3.89,3.7,5.83,8.34,5.83,13.91s-1.96,10.19-5.88,13.85c-3.92,3.65-8.87,5.48-14.84,5.48s-10.45-1.83-14.24-5.48c-3.8-3.65-5.69-8.23-5.69-13.74s1.91-10.32,5.74-14.02,8.66-5.55,14.5-5.55ZM301.43,99.03c-4.33,0-7.88,1.35-10.67,4.06s-4.18,6.16-4.18,10.37,1.4,7.47,4.19,10.18c2.79,2.71,6.29,4.06,10.49,4.06s7.74-1.38,10.56-4.14c2.82-2.76,4.23-6.2,4.23-10.31s-1.41-7.38-4.23-10.11c-2.82-2.73-6.29-4.1-10.4-4.1Z" style="fill:#fff;"/><path d="M362.23,94.42h5.14v37.82h-4.66l-25.28-29.12v29.12h-5.09v-37.82h4.39l25.5,29.37v-29.37Z" style="fill:#fff;"/><path d="M388.48,94.37h31.59v4.82h-13.18v33.05h-5.44v-33.05h-12.97v-4.82Z" style="fill:#fff;"/><path d="M429.06,94.42h21.44v4.82h-16.03v11.53h15.48v4.85h-15.48v11.75h16.54v4.82h-21.95v-37.76Z" style="fill:#fff;"/><path d="M472.74,94.21h3.81l16.96,38.03h-5.54l-5.04-11.21h-16.13l-4.73,11.21h-5.56l16.24-38.03ZM480.69,116.22l-6.1-13.7-5.66,13.7h11.76Z" style="fill:#fff;"/><path d="M531.6,94.42h5.06v37.82h-5.44v-29.42l-11.63,14.62h-1l-11.76-14.62v29.42h-5.41v-37.82h5.13l12.57,15.53,12.49-15.53Z" style="fill:#fff;"/></g></g></g></svg>